<svg width="50" height="60" viewBox="0 0 50 60" fill="none" xmlns="http://www.w3.org/2000/svg">
<path d="M26.9155 26.3333C15.7662 24.3667 12.1807 22.3333 12.1807 19.1667C12.1807 15.5333 17.1415 13 25.442 13C34.1847 13 37.4263 15.8333 37.721 20H48.5756C48.2318 14.2667 43.0747 9 32.8094 7.3V0H18.0747V7.2C8.54617 8.6 0.884086 12.8 0.884086 19.2333C0.884086 26.9333 10.2652 30.7667 23.9686 33C36.2475 35 38.7033 37.9333 38.7033 41.0333C38.7033 43.3333 36.2967 47 25.442 47C15.3242 47 11.3458 43.9333 10.8055 40H0C0.589391 47.3 8.6444 51.4 18.0747 52.7667V60H32.8094V52.8333C42.387 51.6 50 47.8333 50 41C50 31.5333 38.0648 28.3 26.9155 26.3333Z" fill="#6562CF"/>
</svg>
