<svg width="864" height="644" viewBox="0 0 864 644" fill="none" xmlns="http://www.w3.org/2000/svg">
<path d="M828.509 559.296C829.462 530.856 816.449 502.599 791.133 492.908C797.165 521.973 792.045 554.669 776.965 583.374C771.092 594.554 763.469 606.536 765.562 617.94C766.864 625.036 771.907 630.533 777.96 634.02C784.013 637.507 791.065 639.24 798.031 640.938L799.265 642.15C814.809 616.195 827.556 587.735 828.509 559.296Z" fill="#F2F2F2"/>
<path d="M790.784 493.44C803.475 511.173 809.95 533.91 808.545 557.295C808.341 562.472 807.355 567.589 805.622 572.472C803.712 577.369 800.677 581.749 796.762 585.257C793.142 588.631 789.104 591.714 786.253 595.801C784.845 597.796 783.853 600.054 783.338 602.441C782.822 604.827 782.794 607.293 783.253 609.691C784.317 615.374 787.435 620.045 790.659 624.483C794.239 629.41 798.045 634.46 798.882 640.926C798.984 641.709 800.229 641.333 800.128 640.551C798.67 629.301 788.92 622.759 785.374 612.589C783.72 607.843 783.571 602.363 786.59 597.435C789.231 593.125 793.392 589.942 797.083 586.554C800.952 583.17 804.051 578.995 806.171 574.312C808.138 569.503 809.315 564.408 809.657 559.223C810.572 548.037 809.662 536.778 806.965 525.884C804.068 513.892 798.906 502.564 791.757 492.509C791.318 491.897 790.349 492.832 790.784 493.44L790.784 493.44Z" fill="white"/>
<path d="M809.403 549.662C813.482 548.719 817.166 546.529 819.942 543.395C822.718 540.261 824.448 536.34 824.892 532.177C824.955 531.368 823.7 531.409 823.637 532.219C823.23 536.095 821.619 539.747 819.029 542.66C816.439 545.572 813.002 547.6 809.2 548.458C809.12 548.47 809.043 548.499 808.974 548.541C808.905 548.583 808.845 548.639 808.798 548.704C808.751 548.77 808.717 548.844 808.699 548.923C808.68 549.002 808.678 549.083 808.691 549.163C808.705 549.243 808.734 549.319 808.777 549.387C808.82 549.456 808.877 549.515 808.943 549.561C809.009 549.608 809.084 549.641 809.163 549.658C809.242 549.675 809.324 549.676 809.403 549.662V549.662Z" fill="white"/>
<path d="M798.791 583.759C795.65 581.579 793.006 578.759 791.034 575.484C789.062 572.209 787.805 568.553 787.347 564.758C787.243 563.975 785.998 564.351 786.102 565.133C786.586 569.081 787.902 572.882 789.962 576.285C792.022 579.688 794.78 582.615 798.054 584.875C798.68 585.301 799.414 584.183 798.791 583.759Z" fill="white"/>
<path d="M802.635 514.872C801.224 515.535 799.667 515.827 798.111 515.72C796.555 515.613 795.052 515.11 793.745 514.259C793.126 513.824 792.393 514.943 793.009 515.375C794.456 516.309 796.116 516.862 797.834 516.984C799.552 517.107 801.274 516.794 802.839 516.075C803.002 516.022 803.142 515.915 803.237 515.771C803.332 515.628 803.375 515.457 803.36 515.286C803.346 515.208 803.314 515.133 803.269 515.069C803.223 515.004 803.163 514.95 803.094 514.91C803.025 514.871 802.948 514.847 802.869 514.84C802.79 514.833 802.71 514.844 802.635 514.872Z" fill="white"/>
<path d="M701.626 542.213C702.003 542.497 702.381 542.781 702.757 543.075C707.799 546.912 712.471 551.212 716.713 555.919C717.047 556.277 717.38 556.645 717.702 557.014C727.861 568.624 735.47 582.238 740.037 596.975C741.909 602.985 743.288 609.136 744.16 615.37C745.383 624.062 745.997 633.683 749.991 640.844C750.397 641.594 750.855 642.314 751.362 643L797.464 643.783C797.577 643.732 797.689 643.691 797.802 643.64L799.63 643.756C799.607 643.425 799.577 643.083 799.555 642.752C799.542 642.56 799.52 642.368 799.508 642.175C799.497 642.047 799.485 641.919 799.482 641.801C799.478 641.759 799.474 641.716 799.469 641.684C799.466 641.567 799.451 641.46 799.447 641.353C799.282 639.441 799.107 637.529 798.911 635.616C798.912 635.605 798.912 635.605 798.904 635.595C797.397 621.031 794.63 606.638 789.684 593.435C789.535 593.037 789.388 592.63 789.218 592.232C786.974 586.34 784.195 580.666 780.914 575.281C779.123 572.367 777.164 569.56 775.048 566.872C769.571 559.951 762.888 554.078 755.32 549.535C740.167 540.425 721.554 536.717 703.039 541.811C702.565 541.941 702.101 542.072 701.626 542.213Z" fill="#F2F2F2"/>
<path d="M701.637 542.807C723.64 547.748 743.198 560.037 756.189 577.575C759.136 581.349 761.389 585.616 762.843 590.178C764.137 594.929 764.121 599.941 762.798 604.683C761.653 609.288 759.962 613.941 759.93 618.589C759.903 620.864 760.415 623.113 761.424 625.152C762.433 627.191 763.91 628.963 765.734 630.322C770.132 633.73 775.729 635.168 781.279 636.376C787.44 637.717 793.875 639.008 798.551 643.112C799.117 643.609 799.988 642.585 799.422 642.088C791.289 634.947 778.694 636.203 769.371 631.1C765.021 628.72 761.555 624.9 761.223 619.55C760.932 614.871 762.672 610.072 763.87 605.413C765.224 600.78 765.422 595.886 764.449 591.158C763.251 586.515 761.179 582.143 758.345 578.275C752.187 569.584 744.507 562.08 735.676 556.125C725.453 549.171 714.001 544.225 701.929 541.551C701.169 541.381 700.882 542.637 701.637 542.807Z" fill="white"/>
<path d="M752.301 571.607C758.493 565.344 759.778 555.976 755.343 549.724C754.906 549.108 753.822 549.9 754.26 550.516C758.415 556.373 757.177 565.017 751.389 570.872C750.78 571.488 751.696 572.22 752.301 571.607V571.607Z" fill="white"/>
<path d="M763.677 602.381C759.806 602.806 755.888 602.44 752.162 601.304C748.437 600.169 744.981 598.288 742.004 595.776C741.435 595.281 740.564 596.306 741.132 596.801C744.236 599.408 747.838 601.357 751.718 602.531C755.599 603.704 759.677 604.076 763.706 603.625C764.519 603.549 764.486 602.305 763.677 602.381L763.677 602.381Z" fill="white"/>
<path d="M725.149 550.897C724.227 552.278 723.012 553.439 721.59 554.297C720.168 555.155 718.575 555.689 716.923 555.861C716.111 555.927 716.145 557.17 716.951 557.105C718.776 556.908 720.536 556.316 722.109 555.371C723.682 554.426 725.03 553.15 726.061 551.632C726.173 551.512 726.233 551.352 726.229 551.188C726.225 551.024 726.158 550.868 726.041 550.753C725.902 550.658 725.732 550.621 725.567 550.648C725.401 550.674 725.251 550.764 725.149 550.897V550.897Z" fill="white"/>
<path d="M687.914 527C688.011 526.891 687.276 526.799 685.914 526.72V481H619.914V484.68H590.204C586.721 484.684 583.381 486.07 580.918 488.533C578.454 490.996 577.069 494.336 577.064 497.82V516.73C577.067 520.214 578.452 523.555 580.916 526.019C583.379 528.482 586.72 529.868 590.204 529.87L620.654 529.91L634.024 529.93H634.944L648.324 529.95L685.694 530H688.914C689.384 529.47 687.464 527.53 687.914 527Z" fill="#3F3D56"/>
<path d="M688.625 527.849C686.442 531.032 684.674 530.915 683.126 528.855C682.312 527.671 681.656 526.386 681.176 525.032C676.472 512.972 673.396 485.305 664.526 494.979C662.775 496.89 660.996 498.785 659.212 500.659C655.894 504.148 652.428 507.936 648.995 511.282C648.993 511.292 649.073 510.92 649.061 510.928C647.368 512.585 648.643 498.255 647.973 494.223C647.831 493.352 647.598 492.963 647.228 493.311C647.2 492.919 647.181 492.529 647.184 492.133C647.18 491.51 647.211 490.887 647.278 490.268C647.334 489.699 647.411 489.123 647.519 488.543L676.517 333.481C677.281 329.419 679.32 325.707 682.338 322.883C685.356 320.059 689.196 318.271 693.299 317.779C695.243 317.563 697.207 317.632 699.131 317.984L704.409 318.971C706.493 319.361 708.498 320.093 710.342 321.139L710.352 321.141C713.877 323.129 716.693 326.17 718.406 329.837C720.119 333.504 720.643 337.615 719.905 341.595L688.625 527.849Z" fill="#3F3D56"/>
<path d="M441.001 616.176L427.387 609.665L446.088 552.76L466.181 562.37L441.001 616.176Z" fill="#A0616A"/>
<path d="M532.272 607.002C531.282 607.622 530.292 608.232 529.292 608.842C527.302 610.062 525.292 611.262 523.282 612.442C522.272 613.032 521.252 613.622 520.242 614.202V614.232L520.182 614.242L520.162 614.252L518.622 614.632L516.412 608.792L515.392 606.102L513.952 602.292L511.312 595.322L497.412 558.622L519.022 553.292L519.832 556.602H519.842L520.242 558.242L527.792 588.862L529.332 595.122L529.382 595.312L530.312 599.052L531.112 602.292L532.002 605.912L532.272 607.002Z" fill="#A0616A"/>
<path d="M661.185 478.12C659.815 480.32 658.415 482.51 657.005 484.68C654.385 488.72 651.695 492.7 648.935 496.62C648.935 496.63 648.925 496.63 648.915 496.64C647.305 498.132 645.526 499.43 643.615 500.51C643.535 500.57 643.445 500.61 643.365 500.66C641.958 501.438 640.46 502.039 638.905 502.45C638.345 502.59 637.775 502.73 637.215 502.87C635.195 503.35 633.195 503.76 631.205 504.12C627.665 504.75 624.165 505.2 620.685 505.48C620.405 505.51 620.125 505.53 619.845 505.55C605.535 506.6 591.605 504.91 577.065 502.14C569.885 500.78 562.555 499.15 554.965 497.46C552.485 496.9 549.995 496.35 547.475 495.8C547.285 495.76 547.085 495.71 546.885 495.67C543.285 494.88 539.625 494.1 535.875 493.33C531.155 492.36 526.285 491.42 521.225 490.53L521.585 497.66C521.885 503.145 523.025 508.551 524.965 513.69C527.125 520.01 528.835 525.01 525.225 535.42L523.485 540.46C524.387 542.963 524.696 545.64 524.389 548.283C524.082 550.925 523.167 553.461 521.715 555.69L521.365 556.22L535.875 592.93L536.815 595.31H529.385L520.245 595.32H504.755L482.405 550.48L481.335 548.34V548.23L483.645 462.06C483.675 461.3 483.735 460.53 483.835 459.77C484.242 456.315 485.334 452.976 487.045 449.947C488.757 446.918 491.055 444.261 493.805 442.13C496.44 440.071 499.458 438.556 502.684 437.673C505.91 436.791 509.279 436.559 512.595 436.99L520.245 437.98L535.875 440L546.885 441.43L547.105 441.46L579.575 445.66L581.905 436.16L582.335 436L596.005 430.99L643.285 413.66L643.405 413.62L646.515 412.48L646.885 413.08C646.995 413.26 647.105 413.44 647.205 413.62C650.279 419.131 652.782 424.941 654.675 430.96C657.858 440.793 660.479 450.799 662.525 460.93C662.615 461.37 662.695 461.77 662.765 462.13L662.795 462.24C662.825 462.41 662.845 462.52 662.855 462.55C663.945 467.09 663.185 472.63 661.185 478.12Z" fill="#2F2E41"/>
<path d="M663.18 446.364C663.03 445.724 662.84 445.074 662.64 444.444C661.053 439.672 659.203 434.992 657.1 430.424C654.74 425.224 651.91 419.654 648.54 413.624C646.91 410.704 645.157 407.667 643.28 404.514C642.34 402.934 641.363 401.324 640.35 399.684C640.31 399.608 640.267 399.535 640.22 399.464L639.93 398.984L593.15 405.244L575.73 407.574L574.69 416.254L574.44 418.404C574.43 418.404 574.43 418.404 574.44 418.414L573.74 424.274V424.284L572.81 432.024L572.73 432.014L546.88 428.664L520.24 425.214L505.93 423.364C502.614 422.932 499.245 423.164 496.019 424.046C492.793 424.928 489.775 426.444 487.14 428.504C484.391 430.635 482.093 433.293 480.382 436.322C478.67 439.35 477.578 442.689 477.17 446.144C477.08 446.844 477.02 447.564 476.99 448.274L463.49 480.264C455.412 499.396 450.267 519.637 448.23 540.304L438.33 571.954L439.74 572.084L460.72 574.034L466.26 574.554L478.46 556.744C479.85 554.714 481.17 552.624 482.4 550.484C484.425 546.989 486.225 543.368 487.79 539.644L514.18 476.844C516.22 477.194 518.24 477.527 520.24 477.844C529.49 479.344 538.37 480.567 546.88 481.514C574.55 484.604 598.51 484.844 619.84 482.224C625.83 481.494 631.62 480.534 637.21 479.344C639.26 478.914 641.283 478.451 643.28 477.954C643.75 477.844 644.21 477.734 644.67 477.614C648.803 476.548 652.602 474.463 655.721 471.549C658.839 468.635 661.177 464.985 662.52 460.934C664.124 456.239 664.353 451.184 663.18 446.364Z" fill="#2F2E41"/>
<path d="M445.35 606.884L430.62 599.824L428.31 598.714L424.62 607.774L398.86 613.444C397.587 613.723 396.435 614.402 395.575 615.382C394.715 616.362 394.191 617.592 394.079 618.891C393.967 620.19 394.274 621.491 394.954 622.603C395.635 623.716 396.653 624.581 397.86 625.074L423.03 635.344L431.02 628.154L429.06 637.804L438.54 641.674L448.93 608.604L445.35 606.884Z" fill="#2F2E41"/>
<path d="M535.874 592.93L536.814 595.31H535.874V592.93Z" fill="#2F2E41"/>
<path d="M359.874 419.86C359.874 414.5 358.074 410.15 355.864 410.14H189.374C187.154 410.15 185.364 414.5 185.354 419.86V640.503C185.355 641.001 185.169 641.48 184.835 641.849C184.501 642.217 184.041 642.448 183.546 642.497C181.929 642.652 180.312 642.796 178.694 642.93C178.654 642.93 178.614 642.94 178.574 642.94C177.694 643.02 176.814 643.08 175.934 643.15H175.924C175.472 642.313 175.024 641.469 174.582 640.617C174.433 640.33 174.355 640.012 174.354 639.688V407.25C174.354 405.77 174.414 404.28 174.514 402.81C174.657 400.791 174.908 398.782 175.264 396.79C176.954 387.5 180.774 381.21 185.114 381.19H360.115C360.748 381.194 361.374 381.327 361.954 381.58C362.807 381.957 363.578 382.497 364.224 383.17C365.102 384.082 365.852 385.108 366.454 386.22C368.594 389.99 370.124 395.61 370.664 402.15C370.664 402.21 370.674 402.27 370.674 402.33C370.814 403.95 370.885 405.6 370.875 407.25L371.014 428.68L371.104 441.46L371.375 481.56L371.474 495.8L371.914 642C371.914 642.53 371.704 643.039 371.329 643.414C370.954 643.789 370.445 644 369.914 644H361.875C361.344 644 360.835 643.789 360.46 643.414C360.085 643.039 359.875 642.53 359.875 642L359.874 419.86Z" fill="#3F3D56"/>
<path d="M241.196 321.74L229.615 372.695L222.215 380.801H216.876L238.88 288.155L239.968 303.894V303.905L241.196 321.74Z" fill="#3F3D56"/>
<path d="M296.93 373.814L228.99 373.384L222.96 373.344L218.66 373.314L213.65 373.284H213.61C212.884 373.285 212.187 373.572 211.67 374.084L203.21 382.544C203.023 382.728 202.871 382.945 202.76 383.184C202.708 383.251 202.664 383.325 202.63 383.404C202.447 383.829 202.372 384.293 202.41 384.755C202.449 385.216 202.6 385.661 202.851 386.05C203.102 386.44 203.445 386.761 203.849 386.987C204.254 387.212 204.707 387.335 205.17 387.344H293.18C293.709 387.342 294.225 387.191 294.671 386.907C295.117 386.624 295.474 386.221 295.7 385.744L296.39 384.244L297.81 381.194L299.42 377.754C299.592 377.388 299.681 376.988 299.68 376.584C299.677 375.854 299.386 375.154 298.872 374.636C298.358 374.118 297.66 373.823 296.93 373.814Z" fill="#3F3D56"/>
<path opacity="0.17" d="M296.39 384.241L295.695 385.747C295.469 386.223 295.113 386.625 294.668 386.908C294.224 387.191 293.709 387.342 293.182 387.345H205.168C204.705 387.337 204.252 387.214 203.847 386.989C203.443 386.764 203.1 386.442 202.849 386.053C202.599 385.664 202.448 385.219 202.41 384.757C202.372 384.296 202.448 383.832 202.632 383.408C202.663 383.328 202.706 383.254 202.759 383.188L296.39 384.241Z" fill="black"/>
<path opacity="0.17" d="M239.968 303.894V303.905L221.126 380.801H216.876L238.88 288.155L239.968 303.894Z" fill="black"/>
<path d="M263.091 317.984L236.42 115.074C236.323 114.313 235.927 113.623 235.32 113.154L216.96 90.1738L215.31 88.9038C214.699 88.4411 213.931 88.2364 213.17 88.3338L210.41 88.7038C209.649 88.8019 208.958 89.1984 208.489 89.806C208.021 90.4137 207.812 91.1826 207.91 91.9438L235.55 302.184V302.194L237.24 315.054L239.25 330.324V330.344L242.371 354.104C242.42 354.511 242.558 354.902 242.773 355.251C242.989 355.6 243.278 355.898 243.621 356.124C243.957 356.355 244.338 356.513 244.74 356.585C245.142 356.657 245.555 356.643 245.95 356.544L247.7 356.104C248.371 355.931 248.959 355.527 249.36 354.964L250.14 353.854L250.5 353.334L262.58 320.034C263.004 319.44 263.187 318.707 263.091 317.984Z" fill="#3F3D56"/>
<path opacity="0.17" d="M216.955 90.1747L250.503 353.338L250.139 353.853L249.361 354.96C248.96 355.525 248.372 355.929 247.701 356.101L245.948 356.542C245.552 356.64 245.139 356.653 244.736 356.581C244.334 356.509 243.952 356.353 243.614 356.123C243.276 355.893 242.991 355.594 242.776 355.246C242.562 354.898 242.423 354.509 242.369 354.104L207.914 91.947C207.814 91.1857 208.021 90.416 208.489 89.807C208.956 89.198 209.646 88.7995 210.407 88.6992L213.175 88.3355C213.55 88.2848 213.932 88.3093 214.298 88.4076C214.663 88.5059 215.006 88.6761 215.306 88.9082L216.955 90.1747Z" fill="black"/>
<path d="M217.944 97.7009L235.747 123.112L256.907 284.113L245.435 306.872L217.944 97.7009Z" fill="#8BFFA2"/>
<path d="M600.552 642.325L588.343 642.554L622.277 524.675L634.486 528.446L600.552 642.325Z" fill="#3F3D56"/>
<path d="M680.624 642.55L668.424 642.32L634.944 529.93L634.484 528.45L642.314 526.03C643.864 526.06 645.474 526.08 647.134 526.1L648.324 529.95L680.624 642.55Z" fill="#3F3D56"/>
<path d="M530.745 595.819L515.311 601.166L512.888 602.003L516.641 611.037L502.326 633.191C501.617 634.286 501.277 635.578 501.356 636.88C501.434 638.182 501.927 639.424 502.761 640.426C503.596 641.428 504.729 642.136 505.995 642.448C507.261 642.76 508.594 642.659 509.799 642.159L534.91 631.746L535.528 621.016L540.926 629.252L550.385 625.331L534.499 594.522L530.745 595.819Z" fill="#2F2E41"/>
<path d="M437.066 264.946C437.798 266.372 438.834 267.62 440.1 268.602C441.366 269.584 442.832 270.277 444.395 270.631C445.958 270.986 447.58 270.993 449.146 270.653C450.712 270.312 452.184 269.633 453.46 268.662L485.915 290.207L485.977 269.964L455.147 252.608C453.374 250.574 450.917 249.261 448.241 248.918C445.564 248.575 442.855 249.225 440.626 250.746C438.398 252.267 436.804 254.552 436.148 257.17C435.492 259.787 435.819 262.554 437.066 264.946V264.946Z" fill="#A0616A"/>
<path d="M461.312 274.302L476.455 257.076L538.111 293.678L619.842 286.193C623.882 285.824 627.954 286.348 631.769 287.728C635.583 289.109 639.047 291.313 641.914 294.183C644.782 297.053 646.982 300.519 648.359 304.335C649.736 308.151 650.256 312.223 649.882 316.263C649.199 323.558 645.65 330.285 640.013 334.967C634.376 339.648 627.112 341.903 619.815 341.235L527.766 332.715L461.312 274.302Z" fill="#E6E6E6"/>
<path d="M651.009 274.568L650.867 274.39L612.237 270.578L586.137 316.554C563.701 343.983 580.004 362.899 580.98 365.712L573.192 401.619L574.938 413.636L575.81 417.206L664.706 463.656L646.435 402.787L664.275 347.278C668.23 335.004 669.089 321.943 666.774 309.257C664.46 296.571 659.044 284.654 651.009 274.568Z" fill="#E6E6E6"/>
<path d="M693.335 234.11C693.355 234.6 693.365 235.09 693.365 235.57C693.356 240.866 692.095 246.085 689.683 250.801C687.271 255.516 683.778 259.594 679.489 262.701C675.2 265.808 670.237 267.857 665.004 268.678C659.772 269.5 654.42 269.073 649.385 267.43L643.215 265.42C643.165 265.4 643.105 265.39 643.055 265.37L632.885 262.05C632.851 261.62 632.858 261.188 632.905 260.76C617.735 254.28 638.705 232.99 643.915 217C644.725 214.51 616.875 216.37 618.195 214.24C617.905 214.09 617.615 213.94 617.345 213.79C622.049 206.366 629.004 200.64 637.193 197.448C645.382 194.257 654.377 193.767 662.865 196.05C663.085 196.1 663.315 196.17 663.535 196.23C683.295 196.72 693.675 210.49 693.675 228.37C693.674 230.288 693.56 232.205 693.335 234.11Z" fill="#2F2E41"/>
<path d="M676.215 241.15C673.563 249.269 667.796 256.004 660.181 259.872C652.566 263.741 643.726 264.427 635.605 261.78C634.685 261.48 633.785 261.14 632.905 260.76C625.514 257.592 619.576 251.774 616.258 244.45C612.94 237.125 612.482 228.825 614.975 221.18C615.766 218.746 616.847 216.416 618.195 214.24C622.335 207.535 628.789 202.581 636.337 200.315C643.884 198.049 652 198.629 659.148 201.945C666.296 205.26 671.981 211.081 675.126 218.306C678.272 225.531 678.659 233.659 676.215 241.15Z" fill="#A0616A"/>
<path d="M643.214 265.42C643.164 265.4 643.104 265.39 643.054 265.37L632.884 262.05C632.851 261.62 632.858 261.189 632.904 260.76C633.207 257.412 635.557 253.905 638.712 250.12C640.744 247.699 642.156 244.82 642.827 241.732C643.499 238.643 643.409 235.438 642.566 232.392C641.722 229.346 640.151 226.551 637.987 224.248C635.823 221.945 633.132 220.202 630.144 219.171C630.057 219.14 629.971 219.11 629.884 219.08C625.879 217.742 621.973 216.125 618.194 214.24C617.904 214.09 617.614 213.94 617.344 213.79C614.804 212.39 612.964 210.99 612.154 209.65C613.365 205.935 615.296 202.495 617.837 199.527C620.377 196.559 623.478 194.12 626.961 192.35C630.444 190.58 634.242 189.513 638.138 189.212C642.033 188.91 645.95 189.378 649.664 190.59L655.564 192.51C663.005 194.928 669.188 200.191 672.764 207.15C676.924 210.13 680.204 214.51 682.774 219.68C695.694 245.62 670.754 274.26 643.214 265.42Z" fill="#2F2E41"/>
<path d="M662.684 422.3C662.684 424.059 662.151 425.776 661.154 427.226C660.158 428.676 658.746 429.789 657.104 430.42C656.325 430.719 655.506 430.901 654.674 430.96C654.454 430.98 654.224 430.99 654.004 430.99H637.214V512.45C636.964 512.78 636.704 513.11 636.444 513.44C635.004 515.28 633.544 517.12 632.064 518.93C631.744 519.33 631.424 519.72 631.114 520.11C630.624 520.7 630.144 521.29 629.664 521.87C629.494 522.07 629.334 522.26 629.174 522.46C628.354 523.44 627.534 524.42 626.694 525.4V525.41C626.684 525.42 626.684 525.42 626.684 525.43L626.264 525.91C625.594 526.7 624.924 527.5 624.234 528.29C623.297 527.77 622.468 527.074 621.794 526.24C621.376 525.738 621.02 525.188 620.734 524.6C620.724 524.59 620.724 524.58 620.714 524.56C620.702 524.538 620.692 524.514 620.684 524.49C620.123 523.32 619.836 522.038 619.844 520.74V430.99H582.204C581.093 430.997 579.992 430.783 578.964 430.36C577.668 429.843 576.517 429.02 575.608 427.961C574.699 426.902 574.059 425.639 573.744 424.28V424.27C573.275 422.296 573.524 420.219 574.444 418.41C574.434 418.4 574.434 418.4 574.444 418.4C574.833 417.61 575.35 416.89 575.974 416.27V416.26C575.974 416.25 575.974 416.25 575.984 416.24C576.794 415.411 577.762 414.753 578.83 414.303C579.898 413.853 581.045 413.621 582.204 413.62H654.004C656.306 413.621 658.513 414.536 660.14 416.164C661.768 417.791 662.683 419.998 662.684 422.3Z" fill="#3F3D56"/>
<path d="M710.495 254.172C706.982 253.515 703.374 253.556 699.877 254.294C696.38 255.031 693.063 256.45 690.114 258.47C687.165 260.489 684.643 263.07 682.692 266.064C680.741 269.058 679.398 272.407 678.741 275.92V275.92C677.582 282.126 678.616 288.542 681.665 294.069C684.715 299.597 689.592 303.892 695.46 306.22L687.278 349.973L704.353 353.166L722.447 256.407L710.495 254.172Z" fill="#3F3D56"/>
<path d="M685.915 222C693.647 222 699.915 215.732 699.915 208C699.915 200.268 693.647 194 685.915 194C678.183 194 671.915 200.268 671.915 208C671.915 215.732 678.183 222 685.915 222Z" fill="#2F2E41"/>
<path d="M849.116 248.198C843.041 250.225 836.546 250.57 830.144 250.681C811.514 251.003 792.412 249.37 775.456 241.645C758.5 233.92 743.902 219.239 740.133 200.991C738.508 193.126 738.699 184.366 733.743 178.047C727.861 170.547 716.04 169.525 707.806 174.325C699.572 179.126 694.764 188.467 693.366 197.896L690.049 203.288C690.126 206.76 693.883 209.069 697.341 209.394C700.798 209.72 704.274 208.767 707.737 209.025C715.327 209.589 721.514 216.081 723.726 223.362C725.938 230.644 724.873 238.52 722.98 245.891C721.087 253.262 718.382 260.453 717.302 267.986C716.221 275.52 716.954 283.695 721.387 289.881C724.713 294.525 729.783 297.603 734.937 300.065C747.414 306.026 761.082 309.079 774.91 308.994C788.739 308.909 802.368 305.688 814.771 299.573C827.174 293.459 838.029 284.61 846.518 273.694C855.007 262.777 860.908 250.077 863.779 236.549C860.877 242.258 855.191 246.172 849.116 248.198Z" fill="#2F2E41"/>
<path d="M580.326 544.242H551.811C550.243 544.24 548.728 543.673 547.544 542.645C546.36 541.616 545.587 540.195 545.366 538.642C543.606 525.686 543.606 512.551 545.366 499.595C545.584 498.06 546.341 496.654 547.503 495.628C548.664 494.602 550.153 494.023 551.702 493.996C560.674 489.974 570.335 489.975 580.424 493.995C581.364 494.008 582.289 494.226 583.135 494.634C583.982 495.042 584.729 495.631 585.323 496.358C585.944 497.115 586.387 498.001 586.622 498.95C586.858 499.9 586.878 500.89 586.683 501.849C584.392 513.248 584.392 524.989 586.683 536.388C586.878 537.346 586.858 538.337 586.622 539.286C586.387 540.236 585.944 541.122 585.323 541.878C584.718 542.619 583.956 543.215 583.091 543.624C582.227 544.033 581.282 544.244 580.326 544.242Z" fill="#6562CF"/>
<path d="M577.34 508.883H553.34C552.942 508.883 552.56 508.725 552.279 508.443C551.998 508.162 551.84 507.781 551.84 507.383C551.84 506.985 551.998 506.604 552.279 506.322C552.56 506.041 552.942 505.883 553.34 505.883H577.34C577.738 505.883 578.119 506.041 578.4 506.322C578.682 506.604 578.84 506.985 578.84 507.383C578.84 507.781 578.682 508.162 578.4 508.443C578.119 508.725 577.738 508.883 577.34 508.883Z" fill="white"/>
<path d="M577.34 520.883H553.34C552.942 520.883 552.56 520.725 552.279 520.443C551.998 520.162 551.84 519.781 551.84 519.383C551.84 518.985 551.998 518.604 552.279 518.322C552.56 518.041 552.942 517.883 553.34 517.883H577.34C577.738 517.883 578.119 518.041 578.4 518.322C578.682 518.604 578.84 518.985 578.84 519.383C578.84 519.781 578.682 520.162 578.4 520.443C578.119 520.725 577.738 520.883 577.34 520.883Z" fill="white"/>
<path d="M577.34 532.883H553.34C552.942 532.883 552.56 532.725 552.279 532.443C551.998 532.162 551.84 531.781 551.84 531.383C551.84 530.985 551.998 530.604 552.279 530.322C552.56 530.041 552.942 529.883 553.34 529.883H577.34C577.738 529.883 578.119 530.041 578.4 530.322C578.682 530.604 578.84 530.985 578.84 531.383C578.84 531.781 578.682 532.162 578.4 532.443C578.119 532.725 577.738 532.883 577.34 532.883Z" fill="white"/>
<path d="M239.59 226.399V226.397C239.62 226.153 239.744 225.931 239.936 225.778C240.127 225.625 240.371 225.553 240.615 225.577L394.896 225.988C395.14 225.966 395.382 226.039 395.572 226.192C395.763 226.346 395.885 226.568 395.914 226.81V226.813C395.884 227.056 395.76 227.278 395.568 227.431C395.377 227.584 395.133 227.657 394.889 227.633L240.608 227.221C240.365 227.244 240.122 227.171 239.932 227.017C239.742 226.864 239.619 226.642 239.59 226.399Z" fill="#3F3D56"/>
<path d="M280.389 321.42L273.838 328.625C273.534 328.881 273.163 329.044 272.77 329.095C272.376 329.146 271.976 329.083 271.617 328.913C270.531 328.529 269.564 327.866 268.814 326.992C264.132 321.678 258.876 316.899 253.142 312.743C252.2 312.079 251.449 311.179 250.963 310.134C250.765 309.798 250.666 309.414 250.674 309.024C250.683 308.634 250.8 308.254 251.012 307.927C251.077 303.985 253.298 301.543 257.613 300.667C258.37 299.879 260.079 300.178 261.611 301.373C267.913 306.29 273.835 311.675 279.328 317.481C280.677 318.908 281.133 320.601 280.389 321.42Z" fill="#6562CF"/>
<path d="M263.551 305.911L258.037 311.975C257.847 312.184 257.388 312.077 257.012 311.735C256.636 311.393 256.486 310.947 256.676 310.737L262.19 304.673C262.38 304.464 262.839 304.571 263.215 304.913C263.591 305.255 263.742 305.701 263.551 305.911Z" fill="white"/>
<path d="M268.996 310.861L263.483 316.925C263.292 317.135 262.834 317.027 262.458 316.686C262.082 316.344 261.931 315.897 262.122 315.688L267.635 309.623C267.826 309.414 268.284 309.521 268.66 309.863C269.036 310.205 269.187 310.652 268.996 310.861Z" fill="white"/>
<path d="M274.441 315.811L268.927 321.876C268.737 322.085 268.278 321.978 267.902 321.636C267.526 321.294 267.376 320.848 267.566 320.638L273.08 314.574C273.27 314.364 273.729 314.472 274.105 314.814C274.481 315.155 274.631 315.602 274.441 315.811Z" fill="white"/>
<path d="M588.681 507.791C590.061 506.976 591.245 505.868 592.15 504.546C593.056 503.224 593.66 501.719 593.921 500.138C594.182 498.557 594.093 496.937 593.661 495.394C593.228 493.851 592.463 492.422 591.418 491.206L611 457.53L590.788 458.669L575.292 490.474C573.366 492.365 572.202 494.896 572.018 497.588C571.834 500.28 572.644 502.945 574.294 505.08C575.945 507.215 578.321 508.67 580.972 509.169C583.624 509.669 586.367 509.179 588.681 507.791V507.791Z" fill="#A0616A"/>
<path d="M596.583 483.032L578.488 468.938L611.369 405.22L599.048 324.076C598.439 320.066 598.721 315.97 599.873 312.08C601.025 308.19 603.019 304.602 605.714 301.569C608.409 298.537 611.738 296.135 615.466 294.534C619.193 292.933 623.228 292.172 627.282 292.305C634.606 292.555 641.531 295.699 646.539 301.048C651.547 306.397 654.228 313.514 653.995 320.838L650.95 413.231L596.583 483.032Z" fill="#E6E6E6"/>
<path d="M439.66 282.257H378.559C376.922 282.255 375.352 281.603 374.194 280.446C373.036 279.288 372.385 277.718 372.383 276.08V195.176C372.385 193.539 373.036 191.969 374.194 190.811C375.352 189.653 376.922 189.002 378.559 189H439.66C441.297 189.002 442.867 189.653 444.025 190.811C445.183 191.969 445.834 193.539 445.836 195.176V276.08C445.834 277.718 445.183 279.288 444.025 280.446C442.867 281.603 441.297 282.255 439.66 282.257Z" fill="#E6E6E6"/>
<path d="M435.365 277.109H382.854C381.4 277.107 380.006 276.529 378.978 275.501C377.95 274.473 377.372 273.079 377.37 271.625V199.632C377.372 198.178 377.95 196.784 378.978 195.756C380.006 194.728 381.4 194.149 382.854 194.148H435.365C436.819 194.149 438.213 194.728 439.241 195.756C440.269 196.784 440.847 198.178 440.849 199.632V271.625C440.847 273.079 440.269 274.473 439.241 275.501C438.213 276.529 436.819 277.107 435.365 277.109Z" fill="white"/>
<path d="M430.127 207.829H388.092C387.912 207.83 387.733 207.795 387.567 207.726C387.4 207.657 387.248 207.556 387.121 207.429C386.993 207.302 386.892 207.15 386.823 206.984C386.753 206.817 386.718 206.639 386.718 206.458C386.718 206.278 386.753 206.099 386.823 205.933C386.892 205.766 386.993 205.615 387.121 205.488C387.248 205.36 387.4 205.259 387.567 205.191C387.733 205.122 387.912 205.087 388.092 205.087H430.127C430.307 205.087 430.486 205.122 430.652 205.191C430.819 205.259 430.971 205.36 431.098 205.488C431.226 205.615 431.327 205.766 431.396 205.933C431.465 206.099 431.501 206.278 431.501 206.458C431.501 206.639 431.465 206.817 431.396 206.984C431.327 207.15 431.226 207.302 431.098 207.429C430.971 207.556 430.819 207.657 430.652 207.726C430.486 207.795 430.307 207.83 430.127 207.829Z" fill="#6562CF"/>
<path d="M430.127 213.246H388.093C387.729 213.246 387.38 213.102 387.123 212.845C386.866 212.588 386.722 212.239 386.722 211.875C386.722 211.512 386.866 211.163 387.123 210.906C387.38 210.649 387.729 210.504 388.093 210.504H430.127C430.307 210.504 430.485 210.54 430.651 210.609C430.818 210.678 430.969 210.779 431.096 210.906C431.223 211.033 431.324 211.184 431.393 211.351C431.462 211.517 431.498 211.695 431.498 211.875C431.498 212.055 431.462 212.234 431.393 212.4C431.324 212.566 431.223 212.717 431.096 212.845C430.969 212.972 430.818 213.073 430.651 213.142C430.485 213.211 430.307 213.246 430.127 213.246Z" fill="#6562CF"/>
<path d="M406.313 218.663H388.093C387.729 218.663 387.38 218.519 387.123 218.262C386.866 218.005 386.722 217.656 386.722 217.292C386.722 216.929 386.866 216.58 387.123 216.323C387.38 216.066 387.729 215.921 388.093 215.921H406.313C406.677 215.921 407.026 216.066 407.283 216.323C407.54 216.58 407.684 216.929 407.684 217.292C407.684 217.656 407.54 218.005 407.283 218.262C407.026 218.519 406.677 218.663 406.313 218.663Z" fill="#6562CF"/>
<path d="M430.127 230.008H388.092C387.912 230.009 387.733 229.974 387.567 229.905C387.4 229.836 387.248 229.735 387.121 229.608C386.993 229.481 386.892 229.33 386.823 229.163C386.753 228.996 386.718 228.818 386.718 228.637C386.718 228.457 386.753 228.279 386.823 228.112C386.892 227.945 386.993 227.794 387.121 227.667C387.248 227.539 387.4 227.439 387.567 227.37C387.733 227.301 387.912 227.266 388.092 227.267H430.127C430.307 227.266 430.486 227.301 430.652 227.37C430.819 227.439 430.971 227.539 431.098 227.667C431.226 227.794 431.327 227.945 431.396 228.112C431.465 228.279 431.501 228.457 431.501 228.637C431.501 228.818 431.465 228.996 431.396 229.163C431.327 229.33 431.226 229.481 431.098 229.608C430.971 229.735 430.819 229.836 430.652 229.905C430.486 229.974 430.307 230.009 430.127 230.008Z" fill="#E4E4E4"/>
<path d="M430.127 235.425H388.092C387.912 235.426 387.733 235.391 387.567 235.322C387.4 235.254 387.248 235.153 387.121 235.025C386.993 234.898 386.892 234.747 386.823 234.58C386.753 234.413 386.718 234.235 386.718 234.055C386.718 233.874 386.753 233.696 386.823 233.529C386.892 233.362 386.993 233.211 387.121 233.084C387.248 232.956 387.4 232.856 387.567 232.787C387.733 232.718 387.912 232.683 388.092 232.684H430.127C430.307 232.683 430.486 232.718 430.652 232.787C430.819 232.856 430.971 232.956 431.098 233.084C431.226 233.211 431.327 233.362 431.396 233.529C431.466 233.696 431.501 233.874 431.501 234.055C431.501 234.235 431.466 234.413 431.396 234.58C431.327 234.747 431.226 234.898 431.098 235.025C430.971 235.153 430.819 235.254 430.652 235.322C430.486 235.391 430.307 235.426 430.127 235.425Z" fill="#E4E4E4"/>
<path d="M406.313 240.842H388.093C387.729 240.842 387.38 240.698 387.123 240.441C386.866 240.184 386.722 239.835 386.722 239.472C386.722 239.108 386.866 238.759 387.123 238.502C387.38 238.245 387.729 238.101 388.093 238.101H406.313C406.677 238.101 407.026 238.245 407.283 238.502C407.54 238.759 407.684 239.108 407.684 239.472C407.684 239.835 407.54 240.184 407.283 240.441C407.026 240.698 406.677 240.842 406.313 240.842Z" fill="#E4E4E4"/>
<path d="M430.127 252.188H388.093C387.729 252.188 387.38 252.043 387.123 251.786C386.866 251.529 386.722 251.18 386.722 250.817C386.722 250.453 386.866 250.104 387.123 249.847C387.38 249.59 387.729 249.446 388.093 249.446H430.127C430.49 249.446 430.839 249.59 431.096 249.847C431.353 250.104 431.498 250.453 431.498 250.817C431.498 251.18 431.353 251.529 431.096 251.786C430.839 252.043 430.49 252.188 430.127 252.188Z" fill="#E4E4E4"/>
<path d="M430.127 257.605H388.093C387.729 257.605 387.38 257.46 387.123 257.203C386.866 256.946 386.722 256.597 386.722 256.234C386.722 255.87 386.866 255.521 387.123 255.264C387.38 255.007 387.729 254.863 388.093 254.863H430.127C430.49 254.863 430.839 255.007 431.096 255.264C431.353 255.521 431.498 255.87 431.498 256.234C431.498 256.597 431.353 256.946 431.096 257.203C430.839 257.46 430.49 257.605 430.127 257.605Z" fill="#E4E4E4"/>
<path d="M406.313 263.022H388.093C387.729 263.022 387.38 262.877 387.123 262.62C386.866 262.363 386.722 262.014 386.722 261.651C386.722 261.287 386.866 260.938 387.123 260.681C387.38 260.424 387.729 260.28 388.093 260.28H406.313C406.677 260.28 407.026 260.424 407.283 260.681C407.54 260.938 407.684 261.287 407.684 261.651C407.684 262.014 407.54 262.363 407.283 262.62C407.026 262.877 406.677 263.022 406.313 263.022Z" fill="#E4E4E4"/>
<path d="M231.739 174.459L395.654 34.2559H395.914V36.3139H396.414L233.078 176.023L231.739 174.459Z" fill="#2F2E41"/>
<path d="M344.91 335.471H269.542C268.364 335.472 267.236 335.94 266.403 336.773C265.57 337.606 265.102 338.735 265.101 339.912V386.836C265.102 388.013 265.57 389.142 266.403 389.975C267.236 390.807 268.364 391.276 269.542 391.277H344.91C346.087 391.276 347.216 390.808 348.049 389.975C348.882 389.142 349.35 388.013 349.351 386.836V339.912C349.35 338.735 348.882 337.606 348.049 336.773C347.216 335.94 346.087 335.472 344.91 335.471Z" fill="white"/>
<path d="M344.91 335.471H269.542C268.364 335.472 267.236 335.94 266.403 336.773C265.57 337.606 265.102 338.735 265.101 339.912V386.836C265.102 388.013 265.57 389.142 266.403 389.975C267.236 390.807 268.364 391.276 269.542 391.277H344.91C346.087 391.276 347.216 390.808 348.049 389.975C348.882 389.142 349.35 388.013 349.351 386.836V339.912C349.35 338.735 348.882 337.606 348.049 336.773C347.216 335.94 346.087 335.472 344.91 335.471ZM346.367 369.177C346.349 373.954 344.46 378.534 341.104 381.933C337.748 385.333 333.194 387.283 328.417 387.363C320.77 387.463 332.648 387.501 323.425 387.501C302.334 387.501 280.342 387.3 272.137 387.169C271.057 387.147 270.029 386.704 269.272 385.934C268.515 385.164 268.089 384.128 268.084 383.049V339.916C268.085 339.529 268.238 339.158 268.511 338.884C268.785 338.611 269.155 338.456 269.542 338.455H344.907C345.294 338.455 345.664 338.609 345.938 338.882C346.212 339.155 346.366 339.525 346.367 339.912V369.177Z" fill="#CACACA"/>
<path d="M334.967 365.419H277.544C277.036 365.419 276.541 365.261 276.126 364.968C275.71 364.675 275.396 364.262 275.224 363.783L266.356 338.902C266.223 338.531 266.182 338.133 266.235 337.742C266.289 337.352 266.435 336.98 266.662 336.657C266.889 336.335 267.19 336.072 267.54 335.89C267.89 335.708 268.278 335.613 268.672 335.612L345.685 335.476H345.689C346.096 335.476 346.497 335.577 346.856 335.77C347.215 335.963 347.52 336.242 347.745 336.583C347.969 336.923 348.106 337.314 348.142 337.72C348.178 338.125 348.113 338.534 347.952 338.909L347.818 338.851L347.952 338.909L337.23 363.926C337.041 364.37 336.725 364.748 336.323 365.013C335.92 365.278 335.449 365.42 334.967 365.419Z" fill="#CACACA"/>
<path d="M307.183 371.555C310.571 371.555 313.318 368.808 313.318 365.419C313.318 362.031 310.571 359.284 307.183 359.284C303.794 359.284 301.047 362.031 301.047 365.419C301.047 368.808 303.794 371.555 307.183 371.555Z" fill="#3F3D56"/>
<path d="M142.124 612.41C140.924 621.25 134.914 629.23 127.184 634.44C125.343 635.685 123.399 636.772 121.374 637.69C119.148 638.695 116.852 639.537 114.504 640.21C104.204 643.22 93.0744 643.35 82.2444 643.41C71.2944 643.48 60.3478 643.55 49.4044 643.62C40.7744 643.67 31.8644 643.67 23.8944 640.36C23.7753 640.316 23.6584 640.266 23.5444 640.21C15.7144 636.83 9.04443 629.4 9.23443 620.9C9.31081 617.905 10.1581 614.981 11.6944 612.41C12.7114 610.682 13.9336 609.084 15.3344 607.65C19.6744 603.15 25.6944 599.62 31.3344 596.78C40.6344 592.11 51.1444 586.05 53.8644 576.45C54.1515 575.44 54.3457 574.405 54.4444 573.36C55.0844 566.76 51.8744 560.69 47.7844 555.26C47.3844 554.72 46.9644 554.18 46.5344 553.64C45.6144 552.49 44.6644 551.36 43.7244 550.28C43.3244 549.82 42.9244 549.35 42.5144 548.88C38.7344 544.5 34.9244 539.82 32.9344 534.59C32.0777 532.4 31.6009 530.08 31.5244 527.73C31.3044 519.24 40.7944 510.69 47.9744 514.7C51.4944 514.36 55.0144 514.01 58.5344 513.65C62.8544 513.22 67.1544 512.79 71.4644 512.35H71.4744C72.4444 512.27 73.3944 512.17 74.3444 512.07C83.3144 511.18 92.2778 510.283 101.234 509.38C105.214 508.99 109.894 508.84 112.484 511.9C115.304 515.24 113.844 520.52 111.054 523.89C108.264 527.25 104.394 529.63 101.774 533.11C98.3844 537.61 97.5944 543.3 98.5644 548.88C98.8454 550.5 99.267 552.093 99.8244 553.64C100.804 556.403 102.16 559.018 103.854 561.41C109.734 569.65 118.444 575.33 126.174 581.86C133.914 588.4 141.154 596.7 142.214 606.76C142.244 607.05 142.274 607.35 142.284 607.65C142.397 609.238 142.343 610.833 142.124 612.41Z" fill="#E6E6E6"/>
<path d="M79.2361 520.845C71.4331 513.136 64.7867 504.339 59.5035 494.727C54.2362 485.164 50.3457 474.905 47.9472 464.254C45.5157 453.445 44.7103 442.333 45.5578 431.286C47.3152 408.787 55.6287 387.297 69.4703 369.473C70.3155 368.389 71.181 367.322 72.0667 366.27C73.0541 365.095 74.7319 366.788 73.7514 367.955C59.6267 384.891 50.7775 405.598 48.299 427.511C46.5063 444.257 48.508 461.191 54.1554 477.057C59.8028 492.923 68.9509 507.313 80.9208 519.16C82.0143 520.238 80.3294 521.923 79.2361 520.845V520.845Z" fill="#3F4D79"/>
<path d="M68.5098 371.496C69.4743 371.135 70.4189 370.723 71.3394 370.262C71.3859 370.333 71.4313 370.406 71.4779 370.478L68.5098 371.496Z" fill="#E6E6E6"/>
<path d="M86.905 350.48C86.515 352.663 85.8111 354.779 84.815 356.76C82.0646 362.283 77.6836 366.828 72.265 369.78C71.965 369.94 71.655 370.11 71.345 370.26C70.975 369.68 70.595 369.1 70.235 368.52C67.6826 364.72 65.7957 360.513 64.655 356.08C63.495 350.87 64.125 345.02 67.465 340.85C70.795 336.68 77.155 334.81 81.765 337.51C83.096 338.305 84.2254 339.397 85.065 340.7C84.605 341.27 84.145 341.83 83.685 342.4C83.6446 342.452 83.6012 342.503 83.555 342.55C83.155 343.05 82.745 343.54 82.345 344.04C80.675 346.09 79.015 348.15 77.345 350.19C79.6988 350.623 82.0941 350.787 84.485 350.68C84.675 350.67 84.875 350.66 85.065 350.65C85.675 350.61 86.295 350.56 86.905 350.48Z" fill="#6562CF"/>
<path d="M53.1747 391.49L52.5347 399.83L52.3647 402.09C52.1847 402 51.9947 401.91 51.8147 401.82C45.5946 398.732 40.1051 394.353 35.7128 388.974C31.3205 383.596 28.1267 377.342 26.3447 370.63C25.749 368.302 25.3311 365.932 25.0947 363.54C28.3347 363.04 31.5847 362.53 34.8247 362.03C32.2016 358.618 28.9158 355.771 25.1647 353.66C26.0201 345.314 29.0359 337.335 33.9147 330.51C34.7547 344.49 49.3947 353.38 54.7547 366.31C56.3991 370.356 57.111 374.721 56.8374 379.08C56.5639 383.439 55.312 387.681 53.1747 391.49Z" fill="#8BFFA2"/>
<path d="M50.3945 464.74C49.6145 464.78 48.8345 464.8 48.0645 464.79C41.4097 464.748 34.8337 463.347 28.7395 460.673C22.6454 457.999 17.1617 454.109 12.6245 449.24C8.9517 445.218 5.9986 440.594 3.89451 435.57C3.96451 435.56 4.02451 435.55 4.09451 435.54C7.33451 435.04 10.5845 434.53 13.8245 434.03C10.3834 429.546 5.80994 426.06 0.574522 423.93C-0.13353 419.411 -0.18742 414.814 0.414519 410.28C7.73452 422.21 24.8445 423.17 35.6545 432.05C40.8099 436.347 44.3244 442.292 45.6045 448.88C45.9236 450.508 46.0943 452.161 46.1145 453.82C46.1245 454.22 46.1245 454.61 46.1145 455L46.3545 455.54L50.3945 464.74Z" fill="#8BFFA2"/>
<path d="M82.555 478.55C80.485 481.09 78.415 483.65 76.345 486.19C78.89 486.658 81.4826 486.812 84.0651 486.65C81.7718 494.864 77.3693 502.335 71.295 508.32C70.725 508.88 70.1351 509.43 69.5351 509.95C69.4151 510.06 69.285 510.17 69.165 510.28L68.625 508.75L68.615 508.74L65.555 500.27C61.6727 496.367 58.9842 491.438 57.805 486.06V486.04C57.0878 482.893 56.922 479.644 57.3151 476.44C59.0251 462.55 70.765 450.06 67.845 436.37C74.279 441.581 79.2709 448.353 82.345 456.04C80.675 458.09 79.015 460.15 77.345 462.19C79.6989 462.623 82.0942 462.787 84.485 462.68C85.3225 466.065 85.7787 469.533 85.845 473.02C85.855 473.52 85.855 474.01 85.845 474.51C84.795 475.81 83.735 477.1 82.685 478.4C82.6446 478.453 82.6012 478.503 82.555 478.55Z" fill="#8BFFA2"/>
<path d="M448.66 68.2567H387.559C385.922 68.2548 384.352 67.6035 383.194 66.4456C382.036 65.2878 381.385 63.7179 381.383 62.0804V6.17632C381.385 4.53883 382.036 2.96893 383.194 1.81105C384.352 0.653167 385.922 0.00185802 387.559 0H448.66C450.297 0.00185008 451.867 0.653167 453.025 1.81105C454.183 2.96893 454.834 4.53882 454.836 6.17632V62.0804C454.834 63.7179 454.183 65.2878 453.025 66.4456C451.867 67.6035 450.297 68.2548 448.66 68.2567Z" fill="#E6E6E6"/>
<path d="M444.365 63.1091H391.854C390.4 63.1075 389.006 62.5292 387.978 61.5011C386.95 60.473 386.372 59.0791 386.37 57.6252V10.6316C386.372 9.17768 386.95 7.78378 387.978 6.75571C389.006 5.72764 390.4 5.14935 391.854 5.14771H444.365C445.819 5.14935 447.213 5.72763 448.241 6.75571C449.269 7.78378 449.847 9.17768 449.849 10.6316V57.6252C449.847 59.0791 449.269 60.473 448.241 61.5011C447.213 62.5292 445.819 63.1075 444.365 63.1091Z" fill="white"/>
<path d="M415.313 29.6633H397.093C396.729 29.6633 396.38 29.5188 396.123 29.2617C395.866 29.0046 395.722 28.6559 395.722 28.2923C395.722 27.9287 395.866 27.58 396.123 27.3229C396.38 27.0658 396.729 26.9214 397.093 26.9214H415.313C415.677 26.9214 416.026 27.0658 416.283 27.3229C416.54 27.58 416.684 27.9287 416.684 28.2923C416.684 28.6559 416.54 29.0046 416.283 29.2617C416.026 29.5188 415.677 29.6633 415.313 29.6633Z" fill="#6562CF"/>
<path d="M439.127 41.0084H397.092C396.912 41.0088 396.733 40.9737 396.567 40.9051C396.4 40.8364 396.248 40.7355 396.121 40.6081C395.993 40.4808 395.892 40.3295 395.823 40.1629C395.753 39.9964 395.718 39.8178 395.718 39.6375C395.718 39.4571 395.753 39.2786 395.823 39.112C395.892 38.9454 395.993 38.7942 396.121 38.6668C396.248 38.5395 396.4 38.4386 396.567 38.3699C396.733 38.3012 396.912 38.2661 397.092 38.2666H439.127C439.307 38.2661 439.486 38.3012 439.652 38.3699C439.819 38.4386 439.971 38.5395 440.098 38.6668C440.226 38.7942 440.327 38.9454 440.396 39.112C440.465 39.2786 440.501 39.4571 440.501 39.6375C440.501 39.8178 440.465 39.9964 440.396 40.1629C440.327 40.3295 440.226 40.4808 440.098 40.6081C439.971 40.7355 439.819 40.8364 439.652 40.9051C439.486 40.9737 439.307 41.0088 439.127 41.0084Z" fill="#E4E4E4"/>
<path d="M439.127 46.4255H397.092C396.912 46.426 396.733 46.3908 396.567 46.3222C396.4 46.2535 396.248 46.1526 396.121 46.0252C395.993 45.8979 395.892 45.7466 395.823 45.58C395.753 45.4135 395.718 45.2349 395.718 45.0545C395.718 44.8742 395.753 44.6956 395.823 44.529C395.892 44.3625 395.993 44.2112 396.121 44.0838C396.248 43.9565 396.4 43.8556 396.567 43.7869C396.733 43.7182 396.912 43.6831 397.092 43.6836H439.127C439.307 43.6831 439.486 43.7182 439.652 43.7869C439.819 43.8556 439.971 43.9565 440.098 44.0838C440.226 44.2112 440.327 44.3625 440.396 44.529C440.466 44.6956 440.501 44.8742 440.501 45.0545C440.501 45.2349 440.466 45.4135 440.396 45.58C440.327 45.7466 440.226 45.8979 440.098 46.0252C439.971 46.1526 439.819 46.2535 439.652 46.3222C439.486 46.3908 439.307 46.426 439.127 46.4255Z" fill="#E4E4E4"/>
<path d="M415.313 51.8425H397.093C396.729 51.8425 396.38 51.698 396.123 51.4409C395.866 51.1838 395.722 50.8351 395.722 50.4715C395.722 50.1079 395.866 49.7592 396.123 49.5021C396.38 49.245 396.729 49.1006 397.093 49.1006H415.313C415.677 49.1006 416.026 49.245 416.283 49.5021C416.54 49.7592 416.684 50.1079 416.684 50.4715C416.684 50.8351 416.54 51.1838 416.283 51.4409C416.026 51.698 415.677 51.8425 415.313 51.8425Z" fill="#E4E4E4"/>
</svg>
