<svg width="623" height="556" viewBox="0 0 623 556" fill="none" xmlns="http://www.w3.org/2000/svg">
<path d="M75.0835 386.674C109.467 386.674 137.339 380.58 137.339 373.063C137.339 365.546 109.467 359.452 75.0835 359.452C40.7006 359.452 12.8276 365.546 12.8276 373.063C12.8276 380.58 40.7006 386.674 75.0835 386.674Z" fill="white" stroke="#6562CF" stroke-width="5" stroke-miterlimit="10"/>
<path d="M71.4007 386.678V482.317C71.399 487.54 70.1244 492.658 67.721 497.092C65.3176 501.526 61.8815 505.1 57.8013 507.408L35.6526 519.947C33.3799 521.234 31.4663 523.226 30.1282 525.697C28.7902 528.168 28.081 531.019 28.0811 533.929" stroke="#6562CF" stroke-width="5" stroke-miterlimit="10"/>
<path d="M28.2834 551.604C32.5341 551.604 35.98 547.648 35.98 542.767C35.98 537.886 32.5341 533.929 28.2834 533.929C24.0328 533.929 20.5869 537.886 20.5869 542.767C20.5869 547.648 24.0328 551.604 28.2834 551.604Z" stroke="#FFB000" stroke-width="5" stroke-miterlimit="10"/>
<path d="M57.4192 551.604C61.6699 551.604 65.1157 547.648 65.1157 542.767C65.1157 537.886 61.6699 533.929 57.4192 533.929C53.1685 533.929 49.7227 537.886 49.7227 542.767C49.7227 547.648 53.1685 551.604 57.4192 551.604Z" stroke="#FFB000" stroke-width="5" stroke-miterlimit="10"/>
<path d="M71.4011 471.087V501.052C71.401 505.846 69.8532 510.47 67.0566 514.03L61.7676 520.782C58.9694 524.341 57.4201 528.966 57.4194 533.76" stroke="#6562CF" stroke-width="5" stroke-miterlimit="10"/>
<path d="M79.2588 386.678V482.317C79.26 487.54 80.5345 492.659 82.9379 497.093C85.3413 501.527 88.7777 505.1 92.8582 507.408L115.003 519.947C117.277 521.233 119.191 523.224 120.53 525.695C121.869 528.167 122.579 531.019 122.578 533.929" stroke="#6562CF" stroke-width="5" stroke-miterlimit="10"/>
<path d="M122.38 551.604C126.631 551.604 130.077 547.648 130.077 542.767C130.077 537.886 126.631 533.929 122.38 533.929C118.129 533.929 114.684 537.886 114.684 542.767C114.684 547.648 118.129 551.604 122.38 551.604Z" stroke="#FFB000" stroke-width="5" stroke-miterlimit="10"/>
<path d="M93.2405 551.604C97.4911 551.604 100.937 547.648 100.937 542.767C100.937 537.886 97.4911 533.929 93.2405 533.929C88.9898 533.929 85.5439 537.886 85.5439 542.767C85.5439 547.648 88.9898 551.604 93.2405 551.604Z" stroke="#FFB000" stroke-width="5" stroke-miterlimit="10"/>
<path d="M79.2588 471.087V501.052C79.2588 505.846 80.8067 510.47 83.6033 514.03L88.896 520.782C91.6931 524.342 93.2411 528.966 93.2405 533.76" stroke="#6562CF" stroke-width="5" stroke-miterlimit="10"/>
<path d="M129.098 492.355C129.098 492.355 129.534 509.102 120.744 516.116C112.456 522.726 112.149 528.045 112.149 528.045C112.149 528.045 125.96 543.445 129.36 545.038C132.761 546.631 145.144 551.538 151.559 551.538C151.559 551.538 155.899 547.906 145.961 537.944C132.479 524.396 147.778 500.057 147.778 500.057C147.778 500.057 133.726 495.227 129.098 492.355Z" fill="#FFC0B7"/>
<path d="M104.379 294.451C104.379 294.451 174.538 303.95 202.531 337.469C217.656 355.584 158.134 464.779 155.34 501.455C155.34 501.455 133.744 498.192 119.748 485.791C119.748 485.791 122.338 384.286 154.156 365.474C154.156 365.474 93.6015 370.997 67.688 355.831C41.7745 340.664 67.688 299.205 67.688 299.205C67.688 299.205 90.2272 304.252 104.379 294.451Z" fill="#3C4564"/>
<path d="M122.963 512.292C122.963 512.292 111.32 517.556 111.039 527.195C111.039 527.195 123.192 541.491 129.36 545.038C139.028 550.625 152.299 552.388 152.299 552.388C152.299 552.388 157.109 545.591 149.55 539.001C141.991 532.412 140.533 520.734 140.533 520.734C140.533 520.734 139.701 529.001 132.975 530.505C126.951 531.864 125.005 528.381 125.005 528.381C125.005 528.381 126.818 513.465 122.963 512.292Z" fill="#5654B7"/>
<path d="M26.1653 300.615C26.1653 300.615 13.4305 342.002 18.0257 353.558C26.5797 375.139 94.5674 381.571 144.959 371.006C144.959 371.006 127.359 442.169 148.155 500.49C148.155 500.49 162.155 503.265 181.75 500.066C181.75 500.066 181.35 429.802 190.148 354.951C191.898 339.908 116.526 304.591 83.3421 300.602C50.1586 296.613 26.1653 300.615 26.1653 300.615Z" fill="#3F4D79"/>
<path d="M153.143 501.196C153.143 501.196 156.943 517.475 156.943 522.323C156.943 532.196 150.342 544.134 151.541 552.401H211.311C211.311 552.401 207.693 542.268 193.134 538.598C176.737 534.464 173.729 522.378 174.139 501.213C174.139 501.196 163.336 502.147 153.143 501.196Z" fill="#FFCFC9"/>
<path d="M155.907 530.118C155.907 530.118 148.943 541.376 151.541 552.401H212.244C212.244 552.401 212.107 542.545 203.645 541.355C195.184 540.166 181.446 532.174 181.446 532.174C181.446 532.174 182.464 543.887 166.865 545.263C166.865 545.28 167.468 530.564 155.907 530.118Z" fill="#6562CF"/>
<path d="M116.628 130.519C108.138 135.355 102.999 136.925 105.686 167.781C108.373 198.636 127.908 234.687 127.908 234.687L153.313 205.929C153.313 205.929 136.193 148.742 132.606 142.412C125.618 130.126 119.932 128.636 116.628 130.519Z" fill="#6562CF"/>
<path d="M160.253 215.206C160.253 215.206 155.048 201.7 152.483 201.561C149.917 201.422 131.753 216.915 129.202 230.623C128.382 235.046 124.571 242.44 146.517 245.66C153.321 246.657 160.253 215.206 160.253 215.206Z" fill="#8382D8"/>
<path d="M241.482 238.98C241.482 238.98 239.857 240.195 235.061 238.887C233.517 238.465 231.337 235.35 229.04 233.658C227.18 232.286 223.527 232.522 219.598 233.058C217.37 233.354 215.268 229.973 213.86 228.074C199.893 232.716 160.981 245.715 145.518 244.242C141.592 243.871 152.828 215.472 159.632 213.619C164.777 212.222 195.06 213.467 214.257 216.282C221.091 217.414 227.835 219.163 234.428 221.515C236.95 223.339 241.482 238.98 241.482 238.98Z" fill="#FFC0B7"/>
<path d="M104.379 294.451C104.379 294.451 97.5977 300.904 83.3461 300.589V300.564C81.7404 269.322 78.3957 210.631 74.9068 188.833C67.9179 145.207 48.8639 107.588 48.5679 107.006L85.0924 109.223C85.0924 109.223 104.021 124.59 108.153 188.871C112.286 253.153 104.379 294.451 104.379 294.451Z" fill="white"/>
<path d="M85.0889 109.223C88.5519 110.795 111.184 123.957 118.387 128.855C125.591 133.753 129.945 172.077 126.157 202.946C119.76 254.988 120.293 275.342 126.63 298.911C126.63 298.911 112.183 295.44 104.387 294.723C104.387 294.723 100.417 259.037 105.867 222.845C116.907 149.434 85.0889 109.223 85.0889 109.223Z" fill="#6562CF"/>
<path d="M48.5603 107.014C48.5603 107.014 12.4501 120.728 0.566352 135.903C-4.2434 142.025 23.2314 217.645 20.8302 239.685C18.429 261.726 7.23341 310.39 7.23341 310.39C7.23341 310.39 24.3709 336.105 84.33 320.79C84.33 320.79 79.7534 219.149 74.8992 188.841C67.8585 144.88 48.5603 107.014 48.5603 107.014Z" fill="#6562CF"/>
<path d="M124.916 177.227C123.263 190.664 121.694 222.259 122.645 232.574" stroke="#8382D8" stroke-width="6" stroke-miterlimit="10" stroke-linecap="round"/>
<path d="M12.5444 129.27C4.65304 136.824 -2.2312 136.217 0.68348 169.672C3.59816 203.127 24.7838 242.217 24.7838 242.217L52.3318 211.032C52.3318 211.032 38.1186 150.431 35.3804 142.906C31.352 131.811 20.4357 121.732 12.5444 129.27Z" fill="#6562CF"/>
<path d="M52.7141 211.032C52.7141 211.032 43.9554 162.362 38.0488 152.119" stroke="#8382D8" stroke-width="6" stroke-miterlimit="10" stroke-linecap="round"/>
<path d="M63.0164 217.435C63.0164 217.435 54.1952 206.428 51.4055 206.297C48.6158 206.166 29.7199 221.706 25.6769 237.613C24.4823 242.323 17.8848 250.303 43.9699 257.989C58.4772 262.273 63.0164 217.435 63.0164 217.435Z" fill="#8382D8"/>
<path d="M175.351 237.794C175.351 237.794 173.999 239.963 172.025 238.474C170.794 237.545 168.563 235.097 166.879 233.886C168.386 236.617 169.771 239.435 171.029 242.327C168.85 243.434 166.507 244.05 164.126 244.142C162.156 244.239 159.131 240.343 156.099 238.588C153.647 237.174 149.171 238.014 144.37 239.263C139.57 240.512 134.399 232.354 134.399 232.354V232.308C125.291 235.832 66.7912 254.676 45.0174 253.359C40.1326 253.064 53.1513 219.688 61.5352 217.097C68.6142 214.907 114.955 215.468 137.332 219.114C145.965 220.233 159.105 224.289 161.568 224.93C163.814 225.28 168.985 229.509 170.422 230.877C171.922 232.308 175.351 237.794 175.351 237.794Z" fill="#FFCFC9"/>
<path d="M168.533 242.407C168.533 242.407 162.447 232.375 160.771 231.687C157.83 230.472 153.975 228.864 153.975 228.864" stroke="#F7B3AF" stroke-width="4" stroke-miterlimit="10" stroke-linecap="round"/>
<path d="M165.618 243.352C165.618 243.352 160.105 234.987 158.451 234.3C155.511 233.084 151.651 231.476 151.651 231.476" stroke="#F7B3AF" stroke-width="4" stroke-miterlimit="10" stroke-linecap="round"/>
<path d="M87.7482 102.739L79.3829 129.75C79.3829 129.75 56.6365 132.626 50.6909 105.917L58.7047 79.5771L87.7482 102.739Z" fill="#FFCFC9"/>
<path d="M87.7518 102.739L83.9706 114.94C78.9388 117.57 72.5011 117.489 66.2115 107.892C60.5101 99.1748 59.2817 86.3831 58.2051 81.6377L58.6898 79.5943L87.7518 102.739Z" fill="#FFC0B7"/>
<path d="M58.7054 79.5941C58.7054 79.5941 65.6833 97.9936 74.2113 100.963C82.3509 103.793 92.3071 103.041 93.3393 100.963C94.3716 98.8858 102.818 74.3602 100.576 58.157C99.026 46.9457 94.8896 45.412 87.1348 46.2829C79.38 47.1539 76.6532 48.1352 67.1743 44.8003C64.5141 43.8657 69.0834 61.0034 61.0733 67.5331C61.0733 67.5331 55.0648 65.2135 53.7699 67.5883C52.475 69.9631 58.7054 79.5941 58.7054 79.5941Z" fill="#FFCFC9"/>
<path d="M57.6175 82.9885C57.6175 82.9885 37.139 68.6207 38.1306 49.1718C38.5635 40.8451 53.9214 18.4564 63.33 17.5303C72.7386 16.6041 87.2567 22.1609 91.8185 26.7916C96.3804 31.4223 102.626 36.4013 100.998 54.1339C100.906 55.1029 100.704 56.054 100.398 56.9633C98.7187 46.8352 94.6082 45.4248 87.1383 46.283C79.3687 47.1751 76.653 48.131 67.1593 44.8003C64.4991 43.8614 69.0721 61.0034 61.0583 67.5331C61.0583 67.5331 55.0498 65.2135 53.7586 67.5841C52.4673 69.9546 58.6904 79.5899 58.6904 79.5899L57.6175 82.9885Z" fill="#3F4D79"/>
<path d="M56.0411 21.1923C56.0411 21.1923 57.9539 3.95682 48.0051 4.56434C38.0564 5.17185 32.0072 15.9881 31.0711 23.0531C29.8724 32.1317 44.2239 34.8082 44.2239 34.8082L56.0411 21.1923Z" fill="#3F4D79"/>
<path d="M34.4678 34.6681C37.8383 39.2393 44.2242 34.8083 44.2242 34.8083" stroke="#3F4D79" stroke-width="4" stroke-miterlimit="10"/>
<path d="M58.7855 20.5253C58.7855 20.5253 60.9795 1.38236 49.5656 2.01536C38.1516 2.64836 30.7224 18.3247 32.2653 23.1805C33.8081 28.0364 45.2146 34.8082 45.2146 34.8082L58.7855 20.5253Z" stroke="#3F4D79" stroke-width="4" stroke-miterlimit="10"/>
<path d="M94.8555 46.198C92.8317 45.2718 90.2085 47.4725 87.134 48.3221C77.1445 51.0836 70.2851 49.5966 66.5815 44.1205" stroke="#3F4D79" stroke-width="4" stroke-miterlimit="10"/>
<path d="M78.2251 79.1309C82.5264 79.1309 86.0132 75.1271 86.0132 70.1882C86.0132 65.2493 82.5264 61.2455 78.2251 61.2455C73.9239 61.2455 70.437 65.2493 70.437 70.1882C70.437 75.1271 73.9239 79.1309 78.2251 79.1309Z" stroke="#FFB000" stroke-width="5" stroke-miterlimit="10"/>
<path d="M98.3187 79.1309C102.346 79.1309 105.611 75.1271 105.611 70.1882C105.611 65.2493 102.346 61.2455 98.3187 61.2455C94.2912 61.2455 91.0264 65.2493 91.0264 70.1882C91.0264 75.1271 94.2912 79.1309 98.3187 79.1309Z" stroke="#FFB000" stroke-width="5" stroke-miterlimit="10"/>
<path d="M85.957 69.5722H90.7187" stroke="#FFB000" stroke-width="5" stroke-miterlimit="10"/>
<path d="M251.394 553.412L284.692 261.806H290.693L323.992 553.412" stroke="#FFB000" stroke-width="5" stroke-miterlimit="10" stroke-linecap="round"/>
<path d="M310.17 248.709H293.521L290.931 244.511C288.397 240.386 283.705 237.846 278.625 237.846H254.181C249.101 237.846 244.41 240.395 241.875 244.511L239.285 248.709H223.284L229.681 239.473C232.541 235.344 237.82 232.803 243.548 232.803H289.902C295.626 232.803 300.917 235.352 303.773 239.473L310.17 248.709Z" fill="#D1D0FF" stroke="#6562CF" stroke-width="6" stroke-linejoin="round"/>
<path d="M310.477 248.709H303.725L301.135 244.511C298.597 240.386 293.906 237.846 288.83 237.846H254.499C249.423 237.846 244.732 240.395 242.193 244.511L239.604 248.709H223.591L229.988 239.473C232.848 235.344 238.127 232.803 243.858 232.803H290.213C295.937 232.803 301.224 235.352 304.08 239.473L310.477 248.709Z" fill="white" stroke="#6562CF" stroke-width="6" stroke-miterlimit="10"/>
<path d="M319.822 206.786H163.083C158.921 206.786 155.921 202.037 157.075 197.274L180.454 100.99C181.031 98.4687 182.314 96.2348 184.105 94.6321C185.896 93.0294 188.095 92.1466 190.366 92.1196H347.105C351.267 92.1196 354.271 96.8693 353.113 101.627L329.734 197.916C329.154 200.435 327.87 202.667 326.08 204.27C324.29 205.872 322.092 206.756 319.822 206.786Z" fill="white" stroke="#6562CF" stroke-width="6" stroke-miterlimit="10"/>
<path d="M228.574 177.486L224.619 205.338H238.308L232.252 177.439C232.119 176.814 228.663 176.853 228.574 177.486Z" fill="#E2E2FF"/>
<path d="M284.219 232.51H245.371L235.778 188.242C234.72 183.378 233.351 181.483 230.073 180.413V177.864H263.045C265.706 177.864 268.29 178.886 270.386 180.766C272.482 182.647 273.971 185.278 274.615 188.242L284.219 232.51Z" fill="#D1D0FF" stroke="#6562CF" stroke-width="6" stroke-linejoin="round"/>
<path d="M288.075 232.51H249.227L239.633 188.242C238.309 182.146 236.503 177.864 231.027 177.864H266.915C269.573 177.869 272.153 178.893 274.246 180.773C276.339 182.653 277.826 185.282 278.47 188.242L288.075 232.51Z" fill="white" stroke="#6562CF" stroke-width="6" stroke-miterlimit="10"/>
<path d="M187.591 241.104L135.953 244.507V248.709H187.591V241.104Z" fill="white" stroke="#6562CF" stroke-width="6" stroke-linejoin="round"/>
<path d="M219.883 241.104H187.591V248.547H219.883V241.104Z" fill="#D1D0FF" stroke="#6562CF" stroke-width="6" stroke-linejoin="round"/>
<path d="M80.308 261.178H317.381V248.709H79.7715L80.308 261.178Z" fill="white" stroke="#6562CF" stroke-width="6" stroke-linejoin="round"/>
<g clip-path="url(#clip0_407_392)">
<path d="M550.892 387.451V460.728C550.892 471.823 553.357 482.733 558.054 492.421C562.75 502.109 569.52 510.253 577.722 516.078L601.197 532.75" stroke="#6562CF" stroke-width="6" stroke-miterlimit="10" stroke-linecap="round"/>
<path d="M538.163 387.451V460.728C538.163 471.822 535.698 482.732 531.002 492.42C526.307 502.108 519.537 510.252 511.337 516.078L487.857 532.75" stroke="#6562CF" stroke-width="6" stroke-miterlimit="10" stroke-linecap="round"/>
<path d="M551.025 387.446H536.855C533.727 387.446 530.727 386.016 528.516 383.469C526.304 380.923 525.061 377.469 525.061 373.868H562.829C562.829 375.652 562.524 377.419 561.93 379.067C561.337 380.715 560.467 382.213 559.371 383.474C558.275 384.735 556.973 385.735 555.541 386.417C554.109 387.098 552.574 387.448 551.025 387.446Z" fill="white" stroke="#6562CF" stroke-width="5" stroke-miterlimit="10"/>
<path d="M566.422 350.403H577.847L582.298 321.832H570.874L566.422 350.403Z" fill="white" stroke="#6562CF" stroke-width="5" stroke-miterlimit="10"/>
<path d="M478.375 355.639V366.71C478.375 368.173 481.858 369.544 487.913 370.711C499.544 372.956 520.661 374.458 544.785 374.458C581.458 374.458 611.192 370.987 611.192 366.71V355.639C611.192 357.803 603.556 359.768 591.25 361.155C579.273 362.555 562.873 363.404 544.796 363.404C526.72 363.404 510.305 362.555 498.328 361.189C494.333 360.731 490.832 360.217 487.924 359.657C481.858 358.473 478.375 357.103 478.375 355.639Z" fill="#D1D1FF" stroke="#6562CF" stroke-width="5" stroke-miterlimit="10"/>
<path d="M478.375 355.639C478.375 357.103 481.858 358.473 487.913 359.64C490.82 360.2 494.322 360.714 498.317 361.172C510.294 362.555 526.694 363.404 544.796 363.404C562.899 363.404 579.284 362.555 591.262 361.189C603.567 359.784 611.203 357.82 611.203 355.673C611.203 351.391 581.47 347.916 544.796 347.916C515.638 347.916 490.868 350.11 481.939 353.165C479.624 353.916 478.375 354.76 478.375 355.639Z" fill="white" stroke="#6562CF" stroke-width="5" stroke-miterlimit="10"/>
<path d="M572.109 322.77H585.199C596.775 322.77 609.11 305.699 612.751 284.636L621.058 236.576C624.699 215.513 618.268 198.442 606.685 198.442H593.602C582.03 198.442 569.695 215.513 566.054 236.576L557.743 284.636C554.102 305.695 560.533 322.77 572.109 322.77Z" fill="#D1D1FF" stroke="#6562CF" stroke-width="5" stroke-miterlimit="10"/>
<path d="M564.369 322.77H577.46C589.036 322.77 601.37 305.699 605.012 284.636L613.318 236.576C616.96 215.513 610.529 198.442 598.946 198.442H585.862C574.29 198.442 561.955 215.513 558.314 236.576L550.004 284.636C546.363 305.695 552.794 322.77 564.369 322.77Z" fill="white" stroke="#6562CF" stroke-width="5" stroke-miterlimit="10"/>
<path d="M602.248 552.939C608.055 552.939 612.762 547.519 612.762 540.833C612.762 534.147 608.055 528.727 602.248 528.727C596.441 528.727 591.733 534.147 591.733 540.833C591.733 547.519 596.441 552.939 602.248 552.939Z" fill="#D1D1FF" stroke="#6562CF" stroke-width="5" stroke-miterlimit="10"/>
<path d="M487.633 552.939C493.439 552.939 498.147 547.519 498.147 540.833C498.147 534.147 493.439 528.727 487.633 528.727C481.826 528.727 477.118 534.147 477.118 540.833C477.118 547.519 481.826 552.939 487.633 552.939Z" fill="#D1D1FF" stroke="#6562CF" stroke-width="5" stroke-miterlimit="10"/>
<path d="M529.071 496.139C529.071 496.139 542.681 484.635 560.002 496.139" stroke="#6562CF" stroke-width="5" stroke-miterlimit="10"/>
<path d="M579.439 320.432C560.643 351.098 485.359 332.343 485.359 332.343C484.861 320.428 485.617 289.163 467.252 271.333L509.712 272.606C543.248 276.217 568.088 268.499 575.816 264.518C582.45 275.627 592.706 298.779 579.439 320.432Z" fill="#6562CF"/>
<path d="M456.086 273.221C456.086 273.221 404.122 276.866 399.674 289.639C385.773 329.458 439.682 454.902 443.08 485.738C445.925 511.682 427.303 525.557 427.303 525.557C427.303 525.557 435.684 532.189 447.444 528.527C449.961 527.742 452.294 524.102 456.992 519.71C460.486 516.447 469.091 510.574 468.944 505.618C468.701 497.454 458.367 491.153 458.658 486.056C458.949 480.96 467.544 412.877 464.555 383.602C461.238 350.929 439.863 333.073 439.863 333.073L485.525 332.436C485.525 332.436 478.379 289.524 456.086 273.221Z" fill="#B65A18"/>
<path d="M486.243 332.373C486.243 332.373 490.157 291.069 466.342 270.51C464.459 268.885 459.203 270.871 456.181 271.558C455.076 271.813 454.785 273.255 455.444 274.329C471.229 300.455 471.549 322.859 470.462 336.098L486.243 332.373Z" fill="#8382D8"/>
<path d="M468.325 499.189C469.587 501.072 470.208 503.42 470.072 505.793C469.937 508.166 469.053 510.4 467.588 512.076L451.133 530.785C451.133 530.785 421.698 531.417 419.969 530.785C418.241 530.153 419.8 524.492 424.591 522.837C429.382 521.182 435.931 512.008 435.931 512.008C435.931 512.008 441.16 505.554 449.692 525.54L455.4 519.765C455.4 519.765 454.052 502.733 456.281 493.906H443.08C442.778 493.909 442.478 493.843 442.198 493.712C441.918 493.581 441.663 493.387 441.449 493.142C441.234 492.898 441.063 492.606 440.947 492.285C440.83 491.964 440.77 491.619 440.769 491.271C440.785 490.608 441.025 489.978 441.438 489.515C441.851 489.052 442.404 488.793 442.981 488.793H459.351C459.613 488.793 459.872 488.856 460.112 488.979C460.351 489.102 460.565 489.282 460.74 489.506L468.325 499.189Z" fill="#333B63"/>
<path d="M590.495 333.587C582.509 360.184 516.828 356.675 505.632 355.737C505.634 355.719 505.634 355.7 505.632 355.682C505.134 343.767 502.105 306.171 483.741 288.341L508.116 281.552L510.85 272.73C543.617 276.027 567.87 268.554 575.672 264.6C581.053 272.84 599.391 303.943 590.495 333.587Z" fill="#8382D8"/>
<path d="M467.51 292.316C467.51 292.316 413.575 304.282 411.249 322.443C408.924 340.605 443.08 481.155 439.395 506.955C435.709 532.754 411.456 550.593 411.456 550.593C411.456 550.593 431.526 555.001 442.284 550.593C444.738 549.583 449.194 542.785 453.307 540.078C457.213 537.506 465.406 533.064 465.259 528.107C465.015 519.943 454.682 513.218 454.973 508.122C455.264 503.025 471.597 429.85 468.609 400.575C465.292 367.902 454.973 354.289 454.973 354.289L485.156 353.653C485.156 353.653 490.809 316.783 467.51 292.316Z" fill="#C36F0B"/>
<path d="M487.695 357.688L502.566 359.386C502.981 359.386 503.392 359.289 503.774 359.101C504.156 358.913 504.501 358.637 504.788 358.291C505.074 357.944 505.296 357.534 505.441 357.085C505.585 356.637 505.649 356.159 505.628 355.681C505.127 343.685 502.061 305.649 483.354 287.967C482.592 287.251 481.695 286.75 480.735 286.505C479.775 286.261 478.779 286.279 477.826 286.558L465.295 290.271C465.295 290.271 490.621 310.189 484.669 353.585C484.599 354.09 484.624 354.607 484.743 355.1C484.862 355.593 485.073 356.05 485.361 356.44C485.648 356.83 486.006 357.143 486.409 357.359C486.812 357.574 487.251 357.687 487.695 357.688Z" fill="#E5E6FF"/>
<path d="M464.234 520.597C465.525 522.518 466.16 524.916 466.02 527.34C465.88 529.763 464.975 532.044 463.475 533.751L446.688 552.846C446.688 552.846 412.9 553.491 411.135 552.846C409.37 552.201 410.962 546.426 415.852 544.737C420.743 543.048 427.421 533.704 427.421 533.704C427.421 533.704 436.516 527.119 445.218 547.508L451.044 541.614C451.044 541.614 449.666 524.216 451.94 515.233H438.466C438.158 515.237 437.852 515.17 437.566 515.036C437.28 514.903 437.02 514.706 436.801 514.456C436.581 514.206 436.407 513.909 436.288 513.581C436.169 513.254 436.108 512.902 436.107 512.547C436.122 511.867 436.366 511.22 436.789 510.744C437.212 510.269 437.779 510.002 438.37 510.001H455.068C455.336 510.001 455.601 510.065 455.845 510.19C456.089 510.315 456.308 510.498 456.487 510.727L464.234 520.597Z" fill="#3F4D79"/>
<path d="M546.363 106.057C551.452 109.142 563.522 116.164 571.088 131.135C578.654 146.105 562.07 200.555 562.291 216.798C562.512 233.042 575.886 261.175 578.215 262.448C580.545 263.721 550.87 277.723 507.088 272.322C507.088 272.322 510.552 249.603 508.024 239.729C505.496 229.855 493.784 201.213 493.784 201.213C493.784 201.213 480.476 189.561 483.313 180.319C485.204 174.162 505.142 136.138 505.142 136.138L546.363 106.057Z" fill="#FFB000"/>
<path d="M590.598 187.307C590.598 187.307 577.062 205.664 552.37 205.664C552.37 205.664 532.598 132.365 555.222 123.111C577.847 113.856 590.598 187.307 590.598 187.307Z" fill="#FFC033"/>
<path d="M592.186 235.537C591.033 247.8 504.408 264.349 504.408 264.349L504.382 264.289C502.809 265.218 497.038 268.299 493.149 266.02C488.613 263.351 484.603 262.201 481.828 262.902C478.401 263.75 474.498 266.797 472.545 266.122C470.177 265.33 467.963 264.02 466.025 262.265C467.93 259.732 469.945 257.312 472.062 255.013C470.112 255.718 467.326 257.559 465.885 258.115C463.574 259.032 462.697 256.452 462.697 256.452C462.697 256.452 468.247 251.945 469.758 250.936C472.397 249.213 478.331 247.541 479.96 247.541C482.808 247.626 498.073 249.845 505.628 251.419C518.037 243.955 549.58 225.23 561.823 220.443L557.658 204.981C557.658 204.981 575.23 203.008 587.58 190.129C587.58 190.167 593.377 222.853 592.186 235.537Z" fill="#C36F0B"/>
<path d="M468.509 263.101C468.509 263.101 476.846 254.805 478.677 254.614C481.906 254.258 486.122 253.766 486.122 253.766" stroke="#A55F2B" stroke-width="4" stroke-miterlimit="10" stroke-linecap="round"/>
<path d="M471.222 264.909C471.222 264.909 478.592 258.119 480.435 257.912C483.663 257.555 487.88 257.063 487.88 257.063" stroke="#A55F2B" stroke-width="4" stroke-miterlimit="10" stroke-linecap="round"/>
<path d="M589.536 202.46C584.1 206.135 574.268 211.019 558.874 209.568L557.654 205.032C557.654 205.032 575.23 203.063 587.576 190.18C587.576 190.167 588.505 195.37 589.536 202.46Z" fill="#B65A18"/>
<path d="M561.911 63.0723C561.911 63.0723 559.066 108.705 475.766 121.112C475.766 121.112 464.897 110.949 471.343 100.693C477.789 90.4372 484.924 86.665 478.835 79.7144C472.747 72.7639 464.241 58.358 476.528 45.0807C488.815 31.8034 516.902 14.2065 537.304 27.0594C557.706 39.9124 532.686 63.4796 561.911 63.0723Z" fill="#3F4D79"/>
<path d="M471.726 121.137C471.726 121.137 460.858 110.975 467.304 100.723C473.75 90.4712 480.173 86.6946 474.081 79.7441C467.989 72.7936 461.702 56.0963 475.578 45.0892C491.69 32.3084 508.624 26.4993 528.533 35.3296" stroke="#3F4D79" stroke-width="4" stroke-miterlimit="10"/>
<path d="M524.895 66.2505C524.895 66.2505 528.282 93.7046 546.3 106.053C546.3 106.053 534.507 133.265 504.427 137.665C504.427 137.665 513.014 119.669 512.992 113.937C512.969 108.204 509.048 91.6211 509.048 91.6211L524.895 66.2505Z" fill="#C36F0B"/>
<path d="M525.824 76.4853C526.126 89.2958 518.335 99.3142 511.761 104.597C510.611 98.2661 509.048 91.6211 509.048 91.6211L524.895 66.2505C525.143 68.0244 525.472 69.7821 525.879 71.5164C525.802 73.027 525.78 74.6904 525.824 76.4853Z" fill="#B65A18"/>
<path d="M523.053 54.9378C516.92 46.8756 507.666 41.1726 499.242 44.2872C486.287 49.0821 484.566 73.7823 501.198 96.2039C503.17 98.8602 522.312 90.5433 524.25 72.8912C525.264 63.6705 523.053 54.9378 523.053 54.9378Z" fill="#C36F0B"/>
<path d="M523.79 56.6946L517.37 26.6139C516.216 21.488 511.996 18.2801 507.618 19.2263L494.959 22.3366C490.905 23.2192 488.598 28.4724 488.616 33.4201" stroke="#FFB000" stroke-width="5" stroke-miterlimit="10" stroke-linecap="round"/>
<path d="M524.251 54.4056L523.137 54.7143C518.679 55.9496 515.934 61.1124 517.007 66.2458L517.275 67.5288C518.348 72.6622 522.832 75.8223 527.29 74.587L528.405 74.2783C532.863 73.043 535.608 67.8802 534.535 62.7468L534.267 61.4638C533.194 56.3304 528.71 53.1703 524.251 54.4056Z" fill="white"/>
<path d="M529.45 73.1034C532.398 83.2873 542.876 106.303 529.45 132.709C516.024 159.115 498.928 178.859 512.022 206.78C523.388 231.018 522.636 268.257 492.121 268.257" stroke="white" stroke-width="5" stroke-miterlimit="10" stroke-linecap="round"/>
<path d="M404.915 265.63H399.247C397.981 265.631 396.742 265.207 395.682 264.409C394.622 263.612 393.787 262.476 393.28 261.141L356.655 164.237C356.223 163.097 356.045 161.851 356.137 160.612C356.228 159.373 356.586 158.179 357.178 157.139C357.77 156.099 358.577 155.245 359.528 154.655C360.478 154.064 361.541 153.755 362.621 153.756L404.915 265.63Z" fill="white" stroke="#6562CF" stroke-width="6" stroke-miterlimit="10"/>
<path d="M521.652 276.357H409.584C408.361 276.357 407.149 276.08 406.019 275.54C404.889 275.001 403.862 274.211 402.997 273.215C402.133 272.219 401.447 271.036 400.979 269.735C400.511 268.433 400.271 267.039 400.271 265.63H512.336C514.807 265.63 517.176 266.76 518.924 268.772C520.671 270.784 521.652 273.512 521.652 276.357Z" fill="white" stroke="#6562CF" stroke-width="6" stroke-miterlimit="10"/>
</g>
<defs>
<clipPath id="clip0_407_392">
<rect width="268" height="536" fill="white" transform="translate(355 18)"/>
</clipPath>
</defs>
</svg>
