<svg width="34" height="34" viewBox="0 0 34 34" fill="none" xmlns="http://www.w3.org/2000/svg">
<path d="M17.0038 8.28283C12.1797 8.28283 8.28857 12.1748 8.28857 17C8.28857 21.8252 12.1797 25.7172 17.0038 25.7172C21.8279 25.7172 25.719 21.8252 25.719 17C25.719 12.1748 21.8279 8.28283 17.0038 8.28283ZM17.0038 22.6673C13.8863 22.6673 11.3378 20.1257 11.3378 17C11.3378 13.8743 13.8788 11.3327 17.0038 11.3327C20.1288 11.3327 22.6698 13.8743 22.6698 17C22.6698 20.1257 20.1213 22.6673 17.0038 22.6673ZM28.1083 7.92625C28.1083 9.05668 27.1981 9.9595 26.0755 9.9595C24.9453 9.9595 24.0427 9.04909 24.0427 7.92625C24.0427 6.80341 24.9529 5.893 26.0755 5.893C27.1981 5.893 28.1083 6.80341 28.1083 7.92625ZM33.8805 9.98985C33.7516 7.26621 33.1296 4.85362 31.1347 2.86589C29.1475 0.878166 26.7354 0.256053 24.0124 0.119491C21.2059 -0.0398304 12.7941 -0.0398304 9.98762 0.119491C7.27217 0.248466 4.86012 0.870579 2.86525 2.85831C0.870385 4.84603 0.255996 7.25862 0.119465 9.98226C-0.0398215 12.7894 -0.0398215 21.2031 0.119465 24.0102C0.24841 26.7338 0.870385 29.1464 2.86525 31.1341C4.86012 33.1218 7.26458 33.7439 9.98762 33.8805C12.7941 34.0398 21.2059 34.0398 24.0124 33.8805C26.7354 33.7515 29.1475 33.1294 31.1347 31.1341C33.122 29.1464 33.744 26.7338 33.8805 24.0102C34.0398 21.2031 34.0398 12.7969 33.8805 9.98985ZM30.2549 27.0221C29.6632 28.5091 28.5179 29.6547 27.0236 30.254C24.7861 31.1417 19.4765 30.9369 17.0038 30.9369C14.5311 30.9369 9.21394 31.1341 6.98394 30.254C5.49727 29.6623 4.35192 28.5167 3.75271 27.0221C2.86525 24.784 3.07005 19.4733 3.07005 17C3.07005 14.5267 2.87284 9.20841 3.75271 6.97791C4.34434 5.49091 5.48968 4.34531 6.98394 3.74596C9.22153 2.85831 14.5311 3.06315 17.0038 3.06315C19.4765 3.06315 24.7936 2.86589 27.0236 3.74596C28.5103 4.33772 29.6557 5.48332 30.2549 6.97791C31.1423 9.216 30.9375 14.5267 30.9375 17C30.9375 19.4733 31.1423 24.7916 30.2549 27.0221Z" fill="#8BFFA2"/>
</svg>
