<svg width="34" height="34" viewBox="0 0 34 34" fill="none" xmlns="http://www.w3.org/2000/svg">
<path d="M30.3571 0H3.64286C2.67671 0 1.75014 0.3838 1.06697 1.06697C0.3838 1.75014 0 2.67671 0 3.64286L0 30.3571C0 31.3233 0.3838 32.2499 1.06697 32.933C1.75014 33.6162 2.67671 34 3.64286 34H14.0592V22.4408H9.2779V17H14.0592V12.8532C14.0592 8.13647 16.8672 5.53107 21.168 5.53107C23.2278 5.53107 25.3816 5.89839 25.3816 5.89839V10.5279H23.0084C20.6702 10.5279 19.9408 11.9789 19.9408 13.4672V17H25.1608L24.3259 22.4408H19.9408V34H30.3571C31.3233 34 32.2499 33.6162 32.933 32.933C33.6162 32.2499 34 31.3233 34 30.3571V3.64286C34 2.67671 33.6162 1.75014 32.933 1.06697C32.2499 0.3838 31.3233 0 30.3571 0Z" fill="#8BFFA2"/>
</svg>
