<svg width="37" height="45" viewBox="0 0 37 45" fill="none" xmlns="http://www.w3.org/2000/svg">
<path fill-rule="evenodd" clip-rule="evenodd" d="M15.2083 37.5417V44.1667H21.2917V37.5417H24.3333C31.0527 37.5417 36.5 33.5868 36.5 28.7083C36.5 23.8299 31.0527 19.875 24.3333 19.875H21.2917V11.0417H27.375V15.4583H33.4583V6.625H21.2917V0H15.2083V6.625H12.1667C5.4472 6.625 0 10.5798 0 15.4583C0 20.3368 5.4472 24.2917 12.1667 24.2917H15.2083V33.125H9.125V28.7083H3.04167V37.5417H15.2083ZM21.2917 33.125H24.3333C27.6932 33.125 30.4167 31.1477 30.4167 28.7083C30.4167 26.269 27.6932 24.2917 24.3333 24.2917H21.2917V33.125ZM15.2083 19.875V11.0417H12.1667C8.80693 11.0417 6.08333 13.0191 6.08333 15.4583C6.08333 17.8977 8.80693 19.875 12.1667 19.875H15.2083Z" fill="#8075FF"/>
</svg>
