<svg width="34" height="34" viewBox="0 0 34 34" fill="none" xmlns="http://www.w3.org/2000/svg">
<path d="M31.5714 0H2.42098C1.08527 0 0 1.10045 0 2.45134V31.5487C0 32.8996 1.08527 34 2.42098 34H31.5714C32.9071 34 34 32.8996 34 31.5487V2.45134C34 1.10045 32.9071 0 31.5714 0ZM10.2759 29.1429H5.23661V12.917H10.2835V29.1429H10.2759ZM7.75625 10.7009C6.13973 10.7009 4.83437 9.38795 4.83437 7.77902C4.83437 6.17009 6.13973 4.85714 7.75625 4.85714C9.36518 4.85714 10.6781 6.17009 10.6781 7.77902C10.6781 9.39554 9.37277 10.7009 7.75625 10.7009ZM29.1656 29.1429H24.1263V21.25C24.1263 19.3679 24.0884 16.9469 21.508 16.9469C18.8821 16.9469 18.4799 18.996 18.4799 21.1134V29.1429H13.4406V12.917H18.275V15.133H18.3433C19.0188 13.858 20.6656 12.5147 23.117 12.5147C28.217 12.5147 29.1656 15.8768 29.1656 20.2482V29.1429Z" fill="#8BFFA2"/>
</svg>
