<svg width="31" height="32" viewBox="0 0 31 32" fill="none" xmlns="http://www.w3.org/2000/svg">
<path d="M27.4583 0.788086C28.3645 0.788086 29.2335 1.14806 29.8743 1.7888C30.515 2.42955 30.875 3.2986 30.875 4.20475V28.1214C30.875 29.0276 30.515 29.8966 29.8743 30.5374C29.2335 31.1781 28.3645 31.5381 27.4583 31.5381H3.54167C2.63551 31.5381 1.76647 31.1781 1.12572 30.5374C0.484969 29.8966 0.125 29.0276 0.125 28.1214V4.20475C0.125 3.2986 0.484969 2.42955 1.12572 1.7888C1.76647 1.14806 2.63551 0.788086 3.54167 0.788086H27.4583ZM26.6042 27.2673V18.2131C26.6042 16.7361 26.0174 15.3195 24.973 14.2751C23.9286 13.2307 22.512 12.6439 21.035 12.6439C19.5829 12.6439 17.8917 13.5323 17.0717 14.8648V12.9685H12.3054V27.2673H17.0717V18.8452C17.0717 17.5298 18.1308 16.4535 19.4463 16.4535C20.0806 16.4535 20.6889 16.7055 21.1374 17.154C21.5859 17.6025 21.8379 18.2109 21.8379 18.8452V27.2673H26.6042ZM6.75333 10.2864C7.5145 10.2864 8.2445 9.98405 8.78273 9.44582C9.32096 8.90759 9.62333 8.17759 9.62333 7.41642C9.62333 5.82767 8.34208 4.52934 6.75333 4.52934C5.98763 4.52934 5.25329 4.83351 4.71186 5.37494C4.17042 5.91638 3.86625 6.65072 3.86625 7.41642C3.86625 9.00517 5.16458 10.2864 6.75333 10.2864ZM9.12792 27.2673V12.9685H4.39583V27.2673H9.12792Z" fill="black"/>
</svg>
