<svg width="44" height="44" viewBox="0 0 44 44" fill="none" xmlns="http://www.w3.org/2000/svg">
<path d="M28.4167 25.6667H26.9683L26.455 25.1717C28.2517 23.0817 29.3333 20.3683 29.3333 17.4167C29.3333 10.835 23.9983 5.5 17.4167 5.5C10.835 5.5 5.5 10.835 5.5 17.4167C5.5 23.9983 10.835 29.3333 17.4167 29.3333C20.3683 29.3333 23.0817 28.2517 25.1717 26.455L25.6667 26.9683V28.4167L34.8333 37.565L37.565 34.8333L28.4167 25.6667ZM17.4167 25.6667C12.8517 25.6667 9.16667 21.9817 9.16667 17.4167C9.16667 12.8517 12.8517 9.16667 17.4167 9.16667C21.9817 9.16667 25.6667 12.8517 25.6667 17.4167C25.6667 21.9817 21.9817 25.6667 17.4167 25.6667Z" fill="#6320EE"/>
</svg>
