<svg width="44" height="44" viewBox="0 0 44 44" fill="none" xmlns="http://www.w3.org/2000/svg">
<path d="M29.1566 23.926L25.2676 27.8151L36.2606 38.8081L40.1497 34.9191L29.1566 23.926Z" fill="#6320EE"/>
<path d="M32.0829 18.3333C35.6213 18.3333 38.4996 15.455 38.4996 11.9166C38.4996 10.8533 38.2063 9.8633 37.7479 8.9833L32.7979 13.9333L30.0663 11.2016L35.0163 6.25163C34.1363 5.7933 33.1463 5.49997 32.0829 5.49997C28.5446 5.49997 25.6663 8.3783 25.6663 11.9166C25.6663 12.6683 25.8129 13.3833 26.0513 14.0433L22.6596 17.435L19.3963 14.1716L20.6979 12.87L18.1129 10.285L21.9996 6.3983C19.8546 4.2533 16.3713 4.2533 14.2263 6.3983L7.73628 12.8883L10.3213 15.4733H5.15128L3.84961 16.775L10.3396 23.265L11.6413 21.9633V16.775L14.2263 19.36L15.5279 18.0583L18.7913 21.3216L5.20628 34.9066L9.09294 38.7933L29.9563 17.9483C30.6163 18.1866 31.3313 18.3333 32.0829 18.3333Z" fill="#6320EE"/>
</svg>
