<svg width="22" height="20" viewBox="0 0 22 20" fill="none" xmlns="http://www.w3.org/2000/svg">
<path d="M15.1177 1.66675H6.22479C3.76907 1.66675 1.77832 3.53223 1.77832 5.83342V14.1667C1.77832 16.4679 3.76907 18.3334 6.22479 18.3334H15.1177C17.5735 18.3334 19.5642 16.4679 19.5642 14.1667V5.83342C19.5642 3.53223 17.5735 1.66675 15.1177 1.66675Z" stroke="white" stroke-width="2" stroke-linecap="round" stroke-linejoin="round"/>
<path d="M14.2282 9.47501C14.338 10.1685 14.2116 10.8769 13.867 11.4992C13.5224 12.1215 12.9771 12.6262 12.3088 12.9414C11.6405 13.2566 10.8831 13.3663 10.1444 13.2549C9.40569 13.1436 8.72328 12.8167 8.19422 12.321C7.66516 11.8252 7.31639 11.1857 7.19753 10.4935C7.07866 9.8013 7.19574 9.09158 7.53213 8.46532C7.86852 7.83905 8.40707 7.32812 9.07119 7.00521C9.73532 6.68229 10.4912 6.56383 11.2313 6.66667C11.9862 6.77158 12.6852 7.10123 13.2248 7.60693C13.7645 8.11263 14.1163 8.76757 14.2282 9.47501Z" stroke="white" stroke-width="2" stroke-linecap="round" stroke-linejoin="round"/>
<path d="M15.5625 5.41675H15.5721" stroke="white" stroke-width="2" stroke-linecap="round" stroke-linejoin="round"/>
</svg>
